<?xml version="1.0" encoding="UTF-8"?>
<svg version="1.1" xmlns="http://www.w3.org/2000/svg" width="3450" height="2470">
<path d="M0 0 C12.6499773 11.43870985 25.05058368 23.35135394 35.09863281 37.18066406 C36.37779684 38.93276204 37.68769049 40.65840922 39.00390625 42.3828125 C50.53963365 57.62177057 60.39318116 73.97957463 69.32421875 90.859375 C69.75025391 91.66084961 70.17628906 92.46232422 70.61523438 93.28808594 C82.18215208 115.23095722 91.41864822 138.22078602 99.94921875 161.484375 C100.19113953 162.13448547 100.4330603 162.78459595 100.68231201 163.45440674 C111.98568301 193.97341175 119.91885052 225.86047186 128.4751091 257.22754669 C129.81987905 262.15425475 131.16907163 267.07975161 132.51782227 272.00537109 C134.44434653 279.04243709 136.36940282 286.07990156 138.29264736 293.11786461 C141.3867598 304.43988225 144.49167528 315.7588918 147.60395622 327.07592773 C148.99929352 332.15036257 150.39334975 337.22514951 151.78746891 342.29991913 C152.87551781 346.26028008 153.96415141 350.22047817 155.0541687 354.18029785 C156.0635039 357.84738208 157.07070913 361.51504488 158.0763092 365.18315506 C158.61159158 367.13361288 159.14907328 369.08346672 159.68664551 371.03329468 C160.00717896 372.20389435 160.3277124 373.37449402 160.65795898 374.58056641 C160.93341049 375.58294342 161.208862 376.58532043 161.49266052 377.61807251 C162.53343406 381.67486822 163.41567626 385.77093379 164.32421875 389.859375 C588.70421875 389.859375 1013.08421875 389.859375 1450.32421875 389.859375 C1450.32421875 440.349375 1450.32421875 490.839375 1450.32421875 542.859375 C1287.30421875 542.859375 1124.28421875 542.859375 956.32421875 542.859375 C956.32421875 583.779375 956.32421875 624.699375 956.32421875 666.859375 C961.27421875 663.559375 966.22421875 660.259375 971.32421875 656.859375 C974.5834289 655.04288861 977.70983943 653.3569023 981.07421875 651.796875 C982.37939453 651.18827637 982.37939453 651.18827637 983.7109375 650.56738281 C1012.0742424 637.74820328 1042.47878288 631.74039686 1073.32421875 628.859375 C1074.2167334 628.7651123 1075.10924805 628.67084961 1076.02880859 628.57373047 C1087.96480024 627.45516897 1099.97219216 627.61547491 1111.94921875 627.609375 C1113.13673737 627.60870026 1114.32425598 627.60802551 1115.54776001 627.60733032 C1132.66894638 627.62280158 1149.41048761 627.96222018 1166.32421875 630.859375 C1167.38382813 631.03098145 1168.4434375 631.20258789 1169.53515625 631.37939453 C1200.28631045 636.43976829 1229.86270761 646.031454 1257.32421875 660.859375 C1257.98180176 661.20822754 1258.63938477 661.55708008 1259.31689453 661.91650391 C1276.05297404 670.82667581 1290.96825804 681.92295603 1304.9609375 694.71875 C1307.02451088 696.58790407 1309.12936488 698.38260862 1311.26171875 700.171875 C1339.73159636 725.16146697 1359.25096517 762.17173797 1370.32421875 797.859375 C1370.58396484 798.67229004 1370.84371094 799.48520508 1371.11132812 800.32275391 C1377.74300504 821.22891068 1381.73622516 842.9888046 1383.32421875 864.859375 C1383.38061523 865.63152344 1383.43701172 866.40367187 1383.49511719 867.19921875 C1383.88017174 872.74947253 1384.14567278 878.29877658 1384.32421875 883.859375 C1384.35926514 884.94726318 1384.35926514 884.94726318 1384.39501953 886.05712891 C1386.13572347 950.93126291 1368.95989401 1014.70477874 1328.32421875 1065.859375 C1327.88674316 1066.41399414 1327.44926758 1066.96861328 1326.99853516 1067.54003906 C1315.20113524 1082.3666836 1301.62034106 1095.68651696 1286.32421875 1106.859375 C1285.17316858 1107.71743652 1284.02212698 1108.57550951 1282.87109375 1109.43359375 C1232.71983241 1146.41274893 1167.5543491 1165.79425043 1105.5 1166.0625 C1103.86048622 1166.07288551 1103.86048622 1166.07288551 1102.18785095 1166.08348083 C1098.67076999 1166.10068639 1095.15383984 1166.10707048 1091.63671875 1166.109375 C1090.43535278 1166.11071442 1089.23398682 1166.11205383 1087.99621582 1166.11343384 C1068.60511712 1166.10874906 1049.55646241 1165.42016622 1030.32421875 1162.859375 C1029.31439941 1162.72595703 1028.30458008 1162.59253906 1027.26416016 1162.45507812 C1012.95423212 1160.48938837 1012.95423212 1160.48938837 1010.32421875 1157.859375 C1010.27556229 1155.24502563 1010.27556229 1155.24502563 1010.56378174 1151.86181641 C1010.66752609 1150.58300598 1010.77127045 1149.30419556 1010.87815857 1147.9866333 C1011.00482231 1146.56138241 1011.1317066 1145.13615111 1011.25878906 1143.7109375 C1011.38422698 1142.21644496 1011.50874232 1140.72187474 1011.63240051 1139.22723389 C1011.97176937 1135.16033115 1012.32476701 1131.09471538 1012.68064594 1127.02922821 C1013.0507107 1122.78128148 1013.41002486 1118.53242382 1013.77093506 1114.28369141 C1014.37888524 1107.14743976 1014.99570277 1100.01199536 1015.61767578 1092.87695312 C1016.33734841 1084.61982072 1017.04283149 1076.36156858 1017.74075437 1068.10257149 C1018.41155514 1060.16862713 1019.09257778 1052.23559187 1019.77822113 1044.30291748 C1020.0702433 1040.92205399 1020.35861355 1037.54090793 1020.64408112 1034.15948486 C1020.98052544 1030.17958182 1021.32587186 1026.20055058 1021.67819786 1022.22202301 C1021.80630347 1020.75893329 1021.93129878 1019.29556752 1022.05301094 1017.83193207 C1022.2192033 1015.83954935 1022.39761537 1013.84819699 1022.57672119 1011.85693359 C1022.72165197 1010.18224503 1022.72165197 1010.18224503 1022.86951065 1008.47372437 C1023.32421875 1005.859375 1023.32421875 1005.859375 1025.32421875 1003.859375 C1027.35134888 1004.0897522 1027.35134888 1004.0897522 1029.81689453 1004.71337891 C1035.08906627 1005.89005008 1040.05348211 1006.1815285 1045.44140625 1006.1953125 C1046.37864532 1006.2019693 1047.3158844 1006.2086261 1048.28152466 1006.21548462 C1050.25634828 1006.22554572 1052.23120546 1006.23030368 1054.20605469 1006.22998047 C1057.15750619 1006.23431376 1060.10740972 1006.27059355 1063.05859375 1006.30859375 C1093.3921924 1006.488926 1118.61758714 997.81774852 1142.32421875 978.859375 C1143.0409375 978.30894531 1143.75765625 977.75851562 1144.49609375 977.19140625 C1164.05949478 961.34505142 1173.38686065 935.09410772 1176.32421875 910.859375 C1176.7290522 905.76213778 1176.75963381 900.66773709 1176.71533203 895.55712891 C1176.69921651 893.3590701 1176.71532139 891.1628486 1176.734375 888.96484375 C1176.77519568 861.50130318 1168.38270287 834.31493095 1148.88916016 814.39355469 C1136.25374871 802.00651482 1119.47705864 793.89773683 1102.32421875 789.859375 C1100.55884766 789.41464844 1100.55884766 789.41464844 1098.7578125 788.9609375 C1067.65424384 782.03572968 1032.18613884 785.51999165 1004.82055664 802.12426758 C997.90192312 806.55434117 992.00951987 811.95849887 986.32421875 817.859375 C985.51339844 818.69855469 984.70257812 819.53773438 983.8671875 820.40234375 C962.28348565 844.78323288 957.18362945 878.52103936 957.16600037 909.85488892 C957.16142878 911.57943758 957.15642789 913.30398514 957.1510368 915.02853143 C957.13751421 919.74899024 957.13005446 924.46944189 957.12361014 929.18991494 C957.11558024 934.28727315 957.10189143 939.38461658 957.08889771 944.48196411 C957.06717161 953.3073645 957.04901303 962.13276642 957.03329277 970.95817947 C957.01055886 983.71817099 956.98242095 996.47814612 956.95297349 1009.2381237 C956.9053407 1029.94145673 956.86206486 1050.64479647 956.8215332 1071.34814453 C956.78215631 1091.45687381 956.74071364 1111.56559709 956.6965332 1131.67431641 C956.6937837 1132.92691769 956.69103419 1134.17951897 956.68820137 1135.47007787 C956.66668161 1145.26656584 956.64504222 1155.06305355 956.62336504 1164.85954118 C956.5171838 1212.85947369 956.42143489 1260.85942187 956.32421875 1308.859375 C889.99421875 1308.859375 823.66421875 1308.859375 755.32421875 1308.859375 C754.99421875 1253.089375 754.66421875 1197.319375 754.32421875 1139.859375 C749.70421875 1142.829375 745.08421875 1145.799375 740.32421875 1148.859375 C737.25834713 1150.50207049 734.2861062 1152.0477439 731.13671875 1153.484375 C729.94018677 1154.03702026 729.94018677 1154.03702026 728.71948242 1154.60083008 C705.96938036 1164.92596223 682.16330606 1171.19664829 657.32421875 1173.859375 C656.51017578 1173.9536377 655.69613281 1174.04790039 654.85742188 1174.14501953 C644.0515483 1175.23535948 633.17332624 1175.10323309 622.32421875 1175.109375 C621.25419617 1175.11004974 620.18417358 1175.11072449 619.08172607 1175.11141968 C602.31661473 1175.09464673 585.90635438 1174.55188886 569.32421875 1171.859375 C568.23109375 1171.68245117 567.13796875 1171.50552734 566.01171875 1171.32324219 C514.32477715 1162.66388478 464.73528206 1143.04978202 425.32421875 1107.859375 C424.46957031 1107.11429688 423.61492188 1106.36921875 422.734375 1105.6015625 C412.35375713 1096.45087566 402.83671722 1086.7824925 394.32421875 1075.859375 C393.52371094 1074.85261719 392.72320313 1073.84585937 391.8984375 1072.80859375 C359.67405251 1031.98348388 340.82378735 983.28816491 334.32421875 931.859375 C334.2070752 930.94462402 334.08993164 930.02987305 333.96923828 929.08740234 C328.38666703 882.9420177 332.03725886 834.08765346 346.32421875 789.859375 C346.6497876 788.84568848 346.6497876 788.84568848 346.98193359 787.81152344 C353.5952685 767.732605 363.64025859 748.42677867 375.32421875 730.859375 C375.73881348 730.23530762 376.1534082 729.61124023 376.58056641 728.96826172 C390.32378777 708.53591002 407.75356119 689.59427022 427.66064453 675.07421875 C429.33203244 673.85366897 430.98259378 672.60834691 432.6328125 671.359375 C461.20335335 650.03230412 494.74703695 636.73756318 529.32421875 628.859375 C530.59797363 628.56788574 530.59797363 628.56788574 531.89746094 628.27050781 C570.37700317 619.70121994 611.38650261 619.23274769 650.32421875 624.859375 C651.31260742 624.99859375 652.30099609 625.1378125 653.31933594 625.28125 C688.80989682 630.43830426 725.27035658 640.06897838 754.32421875 661.859375 C754.65421875 622.589375 754.98421875 583.319375 755.32421875 542.859375 C564.91421875 542.859375 374.50421875 542.859375 178.32421875 542.859375 C178.32421875 616.449375 178.32421875 690.039375 178.32421875 765.859375 C153.06246094 765.90835938 127.80070312 765.95734375 101.7734375 766.0078125 C85.77278316 766.04319649 69.77213208 766.07906286 53.77148438 766.1171875 C45.36433954 766.13719375 36.95719443 766.15707791 28.55004883 766.17675781 C26.96962959 766.18046497 26.96962959 766.18046497 25.3572827 766.18424702 C8.37580133 766.22390232 -8.60568664 766.25667276 -25.58718715 766.28687482 C-43.03130006 766.31805384 -60.47538512 766.35669053 -77.91946667 766.40216506 C-88.67232881 766.42996393 -99.42517072 766.45203399 -110.178059 766.46663751 C-117.56445947 766.47722779 -124.95082062 766.49510054 -132.33719138 766.51854204 C-136.59059083 766.53183055 -140.84393549 766.54206 -145.0973568 766.54358864 C-185.75841002 765.21287972 -185.75841002 765.21287972 -221.66015625 781.5625 C-231.18320036 791.24833119 -232.96880277 804.71681416 -232.99267578 817.68383789 C-232.68062464 836.82104811 -223.28113212 853.45797319 -209.83203125 866.6484375 C-204.679635 871.10724195 -201.5689707 873.2581811 -194.67578125 873.859375 C-192.04983677 873.59379692 -189.56546201 873.25716525 -186.98046875 872.78515625 C-185.46389823 872.52878764 -183.94729518 872.27261141 -182.43066406 872.01660156 C-181.23987244 871.80976746 -181.23987244 871.80976746 -180.02502441 871.59875488 C-105.36431627 858.71758184 -27.25719422 856.85223085 153.98046875 915.4375 C155.09710749 916.24194624 156.21171948 917.04921377 157.32421875 917.859375 C157.87722656 918.25833984 158.43023438 918.65730469 159 919.06835938 C167.05264865 924.92397391 174.47323709 931.36147109 181.65185547 938.25439453 C182.77883959 939.33597024 183.91080065 940.41238095 185.04736328 941.48388672 C198.28283698 953.98795551 209.36213252 967.9785582 218.32421875 983.859375 C218.70642578 984.5203418 219.08863281 985.18130859 219.48242188 985.86230469 C248.06523782 1035.62177112 252.41845223 1097.89450636 238.0390625 1152.83203125 C226.03464475 1196.24006112 198.51093912 1234.29204062 162.32421875 1260.859375 C161.19527355 1261.70697937 160.06636732 1262.55463566 158.9375 1263.40234375 C85.80668242 1317.64007291 -14.87364868 1326.04093656 -195.44607544 1317.88673401 C-271.44048438 1306.40400284 -348.00891131 1284.09974858 -462.67578125 1213.859375 C-463.66118896 1213.1173584 -463.66118896 1213.1173584 -464.66650391 1212.36035156 C-474.92491051 1204.61024574 -474.92491051 1204.61024574 -477.67578125 1201.859375 C-477.30975306 1198.21513813 -475.36296761 1195.35193683 -473.52734375 1192.25 C-472.86089844 1191.11836426 -472.19445313 1189.98672852 -471.5078125 1188.82080078 C-470.77226152 1187.58358388 -470.03658084 1186.34644407 -469.30078125 1185.109375 C-468.54126115 1183.82429558 -467.78215415 1182.53897192 -467.0234375 1181.25341797 C-464.99905877 1177.82656253 -462.96820591 1174.40358883 -460.93566895 1170.98156738 C-459.25341071 1168.14792148 -457.57442881 1165.31234037 -455.89535522 1162.47680664 C-449.35904563 1151.44005858 -442.812823 1140.40939459 -436.20703125 1129.4140625 C-431.50060535 1121.57987238 -426.83615361 1113.72102231 -422.17578125 1105.859375 C-417.05577319 1097.22236182 -411.92826402 1088.59036908 -406.74951172 1079.98840332 C-403.3349464 1074.31145853 -399.99582171 1068.59204936 -396.67578125 1062.859375 C-391.61050613 1064.47510855 -387.8150824 1067.52979787 -383.61328125 1070.671875 C-368.59201242 1081.69962052 -352.90776625 1091.71110722 -336.67578125 1100.859375 C-335.362146 1101.6013916 -335.362146 1101.6013916 -334.02197266 1102.35839844 C-279.3995736 1133.023936 -219.75144181 1152.97314137 -157.48828125 1160.109375 C-156.40303665 1160.23413712 -156.40303665 1160.23413712 -155.29586792 1160.36141968 C-137.91729982 1162.33171542 -120.6577091 1163.06702514 -103.17578125 1163.046875 C-102.20500641 1163.04627075 -101.23423157 1163.0456665 -100.23403931 1163.04504395 C-57.33466796 1162.97263622 -11.41460717 1159.49402784 21.13671875 1128.484375 C32.88023979 1116.31781646 38.7406255 1102.23043804 38.53125 1085.328125 C37.7259524 1071.83559154 31.8043404 1060.21760097 21.94921875 1051.01171875 C-5.47300738 1028.5271256 -43.20373516 1022.45795461 -77.67578125 1021.859375 C-78.73829102 1021.83665527 -78.73829102 1021.83665527 -79.82226562 1021.81347656 C-85.44258359 1021.70882941 -91.05568125 1021.76069271 -96.67578125 1021.859375 C-98.29081543 1021.88620361 -98.29081543 1021.88620361 -99.93847656 1021.91357422 C-146.13380926 1022.78989111 -191.09908338 1028.54045786 -236.31640625 1037.87109375 C-237.14509216 1038.04177872 -237.97377808 1038.21246368 -238.82757568 1038.38832092 C-242.60268618 1039.17679061 -246.34652156 1040.01828342 -250.0793457 1040.98852539 C-257.57076228 1042.80251514 -262.77004734 1039.57479993 -269.23828125 1036.109375 C-270.15432129 1035.623479 -271.07036133 1035.13758301 -272.01416016 1034.63696289 C-282.18353629 1029.16521715 -291.96656217 1023.10345224 -301.67578125 1016.859375 C-302.72354736 1016.18841797 -302.72354736 1016.18841797 -303.79248047 1015.50390625 C-320.57584361 1004.70540485 -336.47115515 992.5446758 -351.21875 979.09765625 C-352.83556467 977.62478693 -354.46297425 976.16345075 -356.1015625 974.71484375 C-365.5380778 966.36194743 -374.61261778 957.55783869 -382.67578125 947.859375 C-383.33368652 947.08811279 -383.33368652 947.08811279 -384.00488281 946.30126953 C-397.00507824 931.04072578 -408.29289048 914.46815401 -417.67431641 896.74365234 C-418.66953252 894.87113212 -419.69342656 893.0163199 -420.71875 891.16015625 C-430.3055619 873.38374457 -435.78587945 853.77644036 -438.67578125 833.859375 C-438.77745605 833.20122803 -438.87913086 832.54308105 -438.98388672 831.86499023 C-444.61340693 790.00484128 -436.48288419 745.93395233 -416.67578125 708.859375 C-415.86173828 707.32023438 -415.86173828 707.32023438 -415.03125 705.75 C-390.51330177 661.60576232 -347.80671464 634.51963422 -300.35546875 620.6796875 C-269.3822298 612.02156584 -237.40894456 609.68060289 -205.38647461 609.74584961 C-203.4135488 609.74613244 -201.44062289 609.74597188 -199.46769714 609.7454071 C-194.16721056 609.74512286 -188.86674709 609.75095873 -183.56626582 609.75798106 C-178.00630104 609.76427724 -172.44633559 609.76482332 -166.8863678 609.76600647 C-156.382553 609.76910145 -145.87874873 609.77728988 -135.37493855 609.78735596 C-123.4062124 609.79857434 -111.43748571 609.80404191 -99.4687556 609.80905139 C-74.87109032 609.81947423 -50.27343946 609.83779665 -25.67578125 609.859375 C-25.67578125 587.749375 -25.67578125 565.639375 -25.67578125 542.859375 C-184.07578125 542.859375 -342.47578125 542.859375 -505.67578125 542.859375 C-505.67578125 492.369375 -505.67578125 441.879375 -505.67578125 389.859375 C-352.22578125 389.529375 -198.77578125 389.199375 -40.67578125 388.859375 C-64.53537091 368.97638362 -89.90315111 349.9997855 -117.67578125 335.859375 C-118.41634766 335.47491211 -119.15691406 335.09044922 -119.91992188 334.69433594 C-138.12664571 325.31300877 -157.47871522 319.19148595 -177.67578125 315.859375 C-178.55959473 315.70984375 -179.4434082 315.5603125 -180.35400391 315.40625 C-195.22629136 313.0080775 -210.01955109 312.55032994 -225.05078125 312.484375 C-225.92558136 312.47651978 -226.80038147 312.46866455 -227.70169067 312.46057129 C-258.74515046 312.24351217 -289.87128068 319.86474631 -317.94677734 333.14038086 C-319.67578125 333.859375 -319.67578125 333.859375 -321.67578125 333.859375 C-322.039244 332.79990913 -322.039244 332.79990913 -322.41004944 331.71903992 C-337.11822049 288.82372987 -337.11822049 288.82372987 -351.98828125 245.984375 C-352.58937368 244.26253891 -353.19044824 242.54069658 -353.79150391 240.81884766 C-356.14894761 234.06886038 -358.51041644 227.32039758 -360.89295959 220.57922363 C-361.56433925 218.67770405 -362.23278929 216.77515087 -362.90112305 214.87255859 C-363.67602619 212.66662082 -364.45567563 210.46234088 -365.24145508 208.26025391 C-365.73295044 206.85718994 -365.73295044 206.85718994 -366.234375 205.42578125 C-366.65674438 204.23384155 -366.65674438 204.23384155 -367.08764648 203.01782227 C-367.67578125 200.859375 -367.67578125 200.859375 -367.67578125 196.859375 C-316.46364808 173.04588308 -259.04468396 161.09650471 -202.67578125 168.859375 C-201.77230957 168.98296387 -200.86883789 169.10655273 -199.93798828 169.23388672 C-172.29162303 173.18200016 -145.21492202 181.77175864 -120.53466797 194.88134766 C-118.70962074 195.84157082 -116.87018227 196.76591661 -115.0234375 197.68359375 C-99.43457884 205.54467774 -85.28679544 215.98883346 -71.67578125 226.859375 C-70.74636719 227.59542969 -69.81695313 228.33148438 -68.859375 229.08984375 C-62.87742271 233.89752944 -57.18924961 238.96322077 -51.5703125 244.18359375 C-49.01031613 246.55012211 -46.41497208 248.86573939 -43.80078125 251.171875 C-35.23021689 258.87015252 -26.8849464 267.01828947 -19.4375 275.81640625 C-17.58503114 277.96461294 -15.66728442 280.04547984 -13.73730469 282.12402344 C-8.97811735 287.25203971 -4.44537672 292.49426006 -0.0546875 297.9453125 C2.68327249 301.29920109 5.49648614 304.58121103 8.32421875 307.859375 C13.42418153 313.78017823 18.4040893 319.78791727 23.32421875 325.859375 C28.10295979 331.7402401 32.91902329 337.58375197 37.82421875 343.359375 C51.01435194 358.89457478 51.01435194 358.89457478 54.32421875 363.859375 C55.64421875 363.859375 56.96421875 363.859375 58.32421875 363.859375 C57.55513184 362.28361694 57.55513184 362.28361694 56.77050781 360.67602539 C39.17672976 324.62280247 39.17672976 324.62280247 31.61010742 308.80419922 C29.06755512 303.48903942 26.51331461 298.17993539 23.94140625 292.87890625 C22.75618378 290.43505409 21.57133249 287.99102228 20.38671875 285.546875 C19.94617661 284.63826721 19.94617661 284.63826721 19.49673462 283.71130371 C15.69027175 275.85325542 11.96922997 267.96293516 8.32617188 260.02758789 C-1.82616133 237.91762213 -13.18063252 216.73173595 -25.67578125 195.859375 C-26.13194824 195.08980469 -26.58811523 194.32023437 -27.05810547 193.52734375 C-35.90526349 178.64262114 -46.20641811 164.78592856 -58.25585938 152.33056641 C-59.235224 151.31583958 -60.20748409 150.2942241 -61.17382812 149.26708984 C-73.09049312 136.60281566 -86.37740379 127.0439162 -101.67578125 118.859375 C-102.56652344 118.35019531 -103.45726562 117.84101563 -104.375 117.31640625 C-131.96851811 102.29103069 -165.66906711 97.94803727 -196.67578125 96.859375 C-197.43213867 96.83069336 -198.18849609 96.80201172 -198.96777344 96.77246094 C-224.5925811 95.93352194 -249.95642451 99.65455405 -275.05151367 104.44799805 C-277.67578125 104.859375 -277.67578125 104.859375 -281.67578125 104.859375 C-284.2634272 89.27770764 -286.3607641 73.63840334 -288.41275764 57.97849226 C-288.69047898 55.86008946 -288.96888373 53.74177754 -289.2475071 51.62349319 C-290.22272055 44.20881007 -291.19523645 36.79377875 -292.1652832 29.37841797 C-293.06512924 22.50029623 -293.97123204 15.62301761 -294.88012093 8.74608552 C-295.66562155 2.80050255 -296.44663739 -3.14565866 -297.22423202 -9.09228075 C-297.68647903 -12.62666156 -298.15050613 -16.16078519 -298.61914635 -19.69432449 C-299.14019551 -23.6243171 -299.65191849 -27.55549394 -300.1628418 -31.48681641 C-300.31709122 -32.64020508 -300.47134064 -33.79359375 -300.63026428 -34.98193359 C-301.41628817 -41.09509124 -301.8329104 -46.97711574 -301.67578125 -53.140625 C-210.09489489 -80.55655913 -91.99634629 -70.89246476 0 0 Z M623.32421875 782.859375 C622.61104492 783.02566406 621.89787109 783.19195313 621.16308594 783.36328125 C610.11058722 786.02415923 600.22484346 790.31732636 590.32421875 795.859375 C589.32648438 796.41496094 588.32875 796.97054687 587.30078125 797.54296875 C563.51414455 811.75360987 548.66829106 835.26182399 541.94775391 861.69873047 C533.8205361 895.53628377 536.88066531 934.78041675 555.10351562 964.93701172 C570.625076 989.38036499 595.10173849 1006.41926215 623.3203125 1012.79296875 C656.004916 1019.73126532 688.68349718 1015.80899913 717.05859375 997.5078125 C738.67211366 982.95576 750.82959259 963.43841042 755.92090607 938.07450771 C757.25202891 930.76352081 757.49194987 923.46537207 757.54882812 916.05053711 C757.5602182 915.00868759 757.57160828 913.96683807 757.58334351 912.89341736 C757.69326379 902.08840305 757.7412634 891.28274934 757.78417969 880.47729492 C757.80652157 875.35488724 757.84841065 870.23320041 757.90722656 865.11108398 C757.97828499 858.90849155 758.01500404 852.70658149 758.02729797 846.50360298 C758.03769196 844.14607981 758.06010015 841.78857708 758.09489441 839.43128777 C758.14109831 836.13298542 758.14310156 832.83737259 758.13476562 829.53881836 C758.15836151 828.57184021 758.1819574 827.60486206 758.20626831 826.60858154 C758.12822645 820.21507872 756.58756821 817.01879915 752.08827972 812.46814823 C726.78509663 789.39236784 693.61958924 779.63611013 660.01171875 779.609375 C659.25166534 779.60870026 658.49161194 779.60802551 657.70852661 779.60733032 C646.01203038 779.62382358 634.74107404 780.09889785 623.32421875 782.859375 Z " fill="#05186A" transform="translate(1999.67578125,66.140625)"/>
<path d="M0 0 C0.94814575 -0.00100708 1.8962915 -0.00201416 2.87316895 -0.00305176 C18.9106041 0.00841946 34.55679617 0.85921923 50.4375 3.25 C51.43007813 3.39453613 52.42265625 3.53907227 53.4453125 3.68798828 C128.869321 14.91949878 198.99837886 51.3463452 254.4375 103.25 C256.01631243 104.69514852 257.59994197 106.13488994 259.18383789 107.57446289 C265.99020126 113.76968592 272.49913749 120.0580173 278.50390625 127.0390625 C280.68345981 129.5312389 282.9352328 131.94838668 285.1875 134.375 C290.48193411 140.18283378 295.31578043 146.29209479 300.10253906 152.52099609 C301.35593144 154.1443547 302.62661312 155.75432247 303.8984375 157.36328125 C324.6664443 183.81056499 341.83354243 213.05537735 356.4765625 243.27929688 C357.45854646 245.29316235 358.46295536 247.2948103 359.46875 249.296875 C385.60396562 302.05340325 412.4375 374.67217949 412.4375 434.25 C414.06336533 434.35942177 414.06336533 434.35942177 415.72207642 434.47105408 C425.98960662 435.16210304 436.25711637 435.85345527 446.5246067 436.5450964 C451.80187616 436.90057551 457.07915251 437.25595168 462.35644531 437.61108398 C467.4593204 437.9544829 472.56217644 438.29816346 477.66501999 438.64203072 C479.60162063 438.7724851 481.53822785 438.90284186 483.47484207 439.03309441 C487.89639909 439.33050733 492.31785942 439.62915702 496.73907471 439.93161011 C499.74964355 440.13735205 502.76053387 440.33501736 505.77215576 440.52468872 C507.67423798 440.64890701 507.67423798 440.64890701 509.61474609 440.77563477 C510.70290619 440.84412125 511.79106628 440.91260773 512.91220093 440.98316956 C515.4375 441.25 515.4375 441.25 517.4375 442.25 C517.4375 494.06 517.4375 545.87 517.4375 599.25 C484.4375 599.25 451.4375 599.25 417.4375 599.25 C417.4375 669.54 417.4375 739.83 417.4375 812.25 C355.0675 812.25 292.6975 812.25 228.4375 812.25 C228.4375 741.96 228.4375 671.67 228.4375 599.25 C164.4175 599.25 100.3975 599.25 34.4375 599.25 C34.4375 849.72 34.4375 1100.19 34.4375 1358.25 C-27.6025 1358.25 -89.6425 1358.25 -153.5625 1358.25 C-154.15165468 1304.14105209 -154.15165468 1304.14105209 -154.30859375 1287.20458984 C-154.31962065 1286.01462174 -154.33064754 1284.82465364 -154.34200859 1283.5986259 C-154.60124675 1255.23932938 -154.73542435 1226.87975066 -154.84375 1198.51953125 C-154.84851852 1197.28688207 -154.85328705 1196.05423289 -154.85820007 1194.78423071 C-154.94118768 1173.31225047 -155.01589083 1151.84024242 -155.08856201 1130.3682251 C-155.2718117 1057.93028592 -155.2718117 1057.93028592 -156.00054359 985.49648452 C-156.0308397 983.41490936 -156.05966387 981.33331791 -156.08824158 979.25171852 C-156.14098598 975.54749355 -156.20060347 971.84346617 -156.26367188 968.1394043 C-156.27879822 967.08660719 -156.29392456 966.03381008 -156.30950928 964.94911003 C-156.32785828 963.99380457 -156.34620728 963.03849911 -156.3651123 962.054245 C-156.37914848 961.23916316 -156.39318466 960.42408133 -156.40764618 959.58430004 C-156.57435376 957.07131383 -157.01790369 954.70654628 -157.5625 952.25 C-158.18479492 952.44110352 -158.80708984 952.63220703 -159.44824219 952.82910156 C-170.21017656 956.11099788 -180.96076568 959.34576844 -192 961.5625 C-192.71704102 961.70913086 -193.43408203 961.85576172 -194.17285156 962.00683594 C-208.76772121 964.78835485 -223.29861023 965.65920797 -238.125 965.625 C-239.02413116 965.62445618 -239.92326233 965.62391235 -240.84963989 965.62335205 C-272.77986355 965.53589211 -304.27115354 961.40065251 -335.5625 955.25 C-336.73409668 955.02086914 -337.90569336 954.79173828 -339.11279297 954.55566406 C-368.67986626 948.62071476 -397.9168787 938.60962848 -424.37988281 924.0637207 C-426.96494481 923.09996101 -428.02490216 923.25248653 -430.5625 924.25 C-432.49547912 925.50715234 -434.38632987 926.82971728 -436.25 928.1875 C-444.05573863 933.73380039 -452.21819734 938.56274563 -460.5625 943.25 C-461.60857422 943.839021 -461.60857422 943.839021 -462.67578125 944.43994141 C-484.60556369 956.66101451 -507.95064043 966.77394785 -531.5625 975.25 C-530.06887257 979.48597677 -527.88034606 983.04178794 -525.37890625 986.73828125 C-524.96752914 987.35392944 -524.55615204 987.96957764 -524.13230896 988.60388184 C-522.80116621 990.59323523 -521.46332496 992.57797284 -520.125 994.5625 C-519.20479986 995.93365118 -518.2848788 997.30498971 -517.36523438 998.67651367 C-511.16474478 1007.9136194 -504.94071584 1017.13440515 -498.5625 1026.25 C-498.10004883 1026.9114502 -497.63759766 1027.57290039 -497.16113281 1028.25439453 C-489.40421505 1039.33164518 -481.51865698 1050.31516066 -473.5625 1061.25 C-472.98709473 1062.04229004 -472.41168945 1062.83458008 -471.81884766 1063.65087891 C-464.44092995 1073.79577045 -456.88342389 1083.73979174 -448.98291016 1093.48242188 C-447.103431 1095.82127184 -445.26405561 1098.19009967 -443.42407227 1100.56005859 C-438.74347436 1106.58432464 -433.90336346 1112.4357867 -428.90893555 1118.20239258 C-425.83463168 1121.7534414 -422.82900606 1125.34730729 -419.875 1129 C-416.32154431 1133.37939404 -412.599852 1137.56395765 -408.80078125 1141.73046875 C-406.53402842 1144.28204917 -404.38709913 1146.90171532 -402.25 1149.5625 C-397.83878601 1155.0166455 -393.12236354 1160.13259136 -388.33984375 1165.2578125 C-385.6260354 1168.16837875 -383.00510244 1171.15011992 -380.40234375 1174.16015625 C-377.99579879 1176.89370519 -375.52948556 1179.57115657 -373.0625 1182.25 C-370.04323504 1185.52855105 -367.04047862 1188.81580957 -364.125 1192.1875 C-360.54110187 1196.32144485 -356.82024393 1200.3241839 -353.10131836 1204.33618164 C-350.10169077 1207.57462268 -347.12842623 1210.8329184 -344.1875 1214.125 C-340.36924473 1218.38756134 -336.47353286 1222.57287167 -332.5625 1226.75 C-324.23371352 1235.65921689 -324.23371352 1235.65921689 -320.4375 1239.8125 C-319.44363281 1240.89724609 -319.44363281 1240.89724609 -318.4296875 1242.00390625 C-316.25226754 1244.62318758 -314.40879952 1247.39028719 -312.5625 1250.25 C-322.34156157 1257.94528901 -332.19757537 1265.50930407 -342.24145508 1272.85595703 C-348.23690188 1277.25005977 -354.16056662 1281.73123907 -360.0625 1286.25 C-367.44882009 1291.90365962 -374.89444732 1297.46470389 -382.3984375 1302.9609375 C-388.33921433 1307.32277032 -394.2100326 1311.77054548 -400.0625 1316.25 C-407.44600583 1321.90130505 -414.88837347 1327.46059827 -422.38964844 1332.9543457 C-429.3138124 1338.03788174 -436.14027721 1343.24460183 -442.96166992 1348.46484375 C-450.42033276 1354.16419616 -457.96309836 1359.74014197 -465.5625 1365.25 C-469.82824753 1363.70601713 -471.99608212 1360.49766948 -474.625 1357 C-475.605267 1355.72380334 -476.5857415 1354.44776605 -477.56640625 1353.171875 C-478.06414551 1352.51896484 -478.56188477 1351.86605469 -479.07470703 1351.19335938 C-481.37468574 1348.18912069 -483.71929504 1345.22055611 -486.0625 1342.25 C-486.97941141 1341.08352568 -487.89607738 1339.91685838 -488.8125 1338.75 C-489.26625 1338.1725 -489.72 1337.595 -490.1875 1337 C-491.5625 1335.25 -492.9375 1333.5 -494.3125 1331.75 C-494.99276245 1330.8842334 -494.99276245 1330.8842334 -495.68676758 1330.00097656 C-496.60593313 1328.83109984 -497.52504095 1327.66117777 -498.4440918 1326.49121094 C-500.69706094 1323.62328843 -502.95093723 1320.7560901 -505.20703125 1317.890625 C-517.11032365 1302.76744604 -528.8984603 1287.5584376 -540.5625 1272.25 C-541.83202994 1270.58463442 -543.10156124 1268.91926987 -544.37109375 1267.25390625 C-547.06495242 1263.71962463 -549.75739519 1260.18426928 -552.44921875 1256.6484375 C-555.1765182 1253.06687352 -557.90855472 1249.48900186 -560.64453125 1245.9140625 C-568.81976741 1235.22450542 -576.88298629 1224.46182622 -584.8359375 1213.60595703 C-587.78093266 1209.58740453 -590.73357873 1205.57449388 -593.6875 1201.5625 C-594.26959229 1200.77157959 -594.85168457 1199.98065918 -595.45141602 1199.16577148 C-599.14707724 1194.15093499 -602.87564643 1189.16227018 -606.625 1184.1875 C-611.35443851 1177.90822229 -615.97662674 1171.55713039 -620.56445312 1165.17382812 C-624.54139219 1159.64583554 -628.57267169 1154.16039854 -632.625 1148.6875 C-637.53516052 1142.04875223 -642.35191044 1135.35316215 -647.09399414 1128.59350586 C-650.70685442 1123.44708194 -654.37225772 1118.34117772 -658.0625 1113.25 C-667.25378352 1100.55850786 -676.24885183 1087.72962176 -685.22167969 1074.88305664 C-688.09897096 1070.76372679 -690.98381697 1066.65048444 -693.89453125 1062.5546875 C-704.17968223 1048.04385434 -713.87888241 1033.16520438 -723.5625 1018.25 C-724.61706108 1016.63012603 -725.67172959 1015.01032198 -726.7265625 1013.390625 C-739.23271894 994.1555518 -751.45493203 974.73782929 -763.5625 955.25 C-764.19381836 954.23486328 -764.82513672 953.21972656 -765.47558594 952.17382812 C-775.59999198 935.87399716 -785.44964746 919.42205492 -795.21104431 902.90344238 C-797.825647 898.48320522 -800.46256549 894.07679533 -803.109375 889.67578125 C-807.41150092 882.51950446 -811.65572558 875.33038398 -815.875 868.125 C-816.42250916 867.19056061 -816.42250916 867.19056061 -816.9810791 866.23724365 C-823.08874751 855.80968677 -829.13525452 845.34897283 -835.09570312 834.83642578 C-836.64960004 832.09641514 -838.20764335 829.35878359 -839.765625 826.62109375 C-845.28419046 816.90854953 -850.74934509 807.16744067 -856.125 797.375 C-856.61355469 796.49013916 -857.10210938 795.60527832 -857.60546875 794.69360352 C-866.43705078 778.52138566 -869.91410359 764.20972963 -864.58984375 745.90625 C-859.52815211 731.76782996 -851.69011868 720.16858141 -841.5625 709.25 C-840.81009033 708.43184814 -840.81009033 708.43184814 -840.04248047 707.59716797 C-819.21304101 685.18924242 -789.11200331 666.03406342 -757.83764648 664.84985352 C-745.33877292 664.65013261 -734.43540465 667.24652108 -724.5625 675.25 C-723.96050781 675.72824219 -723.35851562 676.20648437 -722.73828125 676.69921875 C-710.5945596 687.53305582 -704.29621393 706.84330071 -697.42773438 721.20874023 C-685.37577043 746.37168971 -672.47169812 771.34080188 -652.5625 791.25 C-651.31339844 792.49910156 -651.31339844 792.49910156 -650.0390625 793.7734375 C-639.71471517 803.57668212 -626.40673344 810.69910165 -611.87402344 810.39697266 C-595.7225077 809.37001739 -579.29185205 803.05785814 -567.671875 791.65234375 C-553.03801503 774.98600323 -549.39279195 752.74988901 -550.68261719 731.24755859 C-552.23233518 709.59592538 -557.37100313 688.67774854 -564.5625 668.25 C-564.86526855 667.38842285 -565.16803711 666.5268457 -565.47998047 665.63916016 C-572.95442612 644.66402179 -582.25471153 624.43503841 -593.5625 605.25 C-593.96691419 604.40007974 -594.37132838 603.55015949 -594.78799754 602.67448407 C-596.32796564 600.0306544 -596.32796564 600.0306544 -599.03182906 599.62259549 C-600.52014289 599.62088675 -600.52014289 599.62088675 -602.03852367 599.61914349 C-603.75608892 599.59898553 -603.75608892 599.59898553 -605.50835246 599.57842034 C-607.40375481 599.59443023 -607.40375481 599.59443023 -609.33744812 599.61076355 C-610.68885864 599.60445548 -612.04026042 599.59595483 -613.39164478 599.58544332 C-617.11338067 599.56287157 -620.83449891 599.57152663 -624.55625451 599.5851289 C-628.56651945 599.59436803 -632.57665454 599.57486446 -636.58688354 599.55880737 C-643.53755544 599.53493137 -650.48804998 599.52936763 -657.43875694 599.53615379 C-667.48833768 599.54593913 -677.53772126 599.52824347 -687.58727012 599.50378648 C-703.89094807 599.46485793 -720.19456979 599.44823164 -736.49829102 599.44555664 C-752.33816423 599.44291015 -768.17797134 599.42974888 -784.01782227 599.40258789 C-785.49670151 599.40007162 -785.49670151 599.40007162 -787.0054571 599.39750451 C-794.71571006 599.38430346 -802.42596189 599.37049149 -810.13621342 599.35648644 C-847.94498884 599.28796637 -885.75361582 599.2727453 -923.5625 599.25 C-923.5625 547.44 -923.5625 495.63 -923.5625 442.25 C-693.8825 442.25 -464.2025 442.25 -227.5625 442.25 C-231.8525 435.32 -236.1425 428.39 -240.5625 421.25 C-258.04851325 391.75339178 -271.04682749 361.27711681 -276.5625 327.25 C-276.72476074 326.29432129 -276.88702148 325.33864258 -277.05419922 324.35400391 C-279.86725687 306.94439941 -279.8479736 289.46605226 -279.875 271.875 C-279.88051376 270.14972076 -279.88051376 270.14972076 -279.88613892 268.3895874 C-279.91790826 249.32152516 -279.57506666 230.06008993 -275.375 211.375 C-275.16069336 210.39289551 -274.94638672 209.41079102 -274.72558594 208.39892578 C-265.95182735 169.3761763 -249.95689576 132.37731181 -224.5625 101.25 C-223.78261719 100.26644531 -223.00273438 99.28289062 -222.19921875 98.26953125 C-209.74820545 82.99138273 -195.57778216 68.76783991 -179.5625 57.25 C-178.91249023 56.77159668 -178.26248047 56.29319336 -177.59277344 55.80029297 C-139.35191861 27.65653974 -95.39006878 10.49098269 -48.5625 3.25 C-47.8396582 3.13817383 -47.11681641 3.02634766 -46.37207031 2.91113281 C-30.92637372 0.58067788 -15.59134495 0.01153758 0 0 Z M-64.5625 68.25 C-65.46452148 68.46430664 -66.36654297 68.67861328 -67.29589844 68.89941406 C-105.73323125 78.3539245 -143.38717805 100.35301397 -168.5625 131.25 C-169.46338093 132.31524012 -170.36443888 133.38033055 -171.265625 134.4453125 C-205.31929514 175.2464075 -217.77372601 224.78385656 -217.8125 276.9375 C-217.81317474 277.76627655 -217.81384949 278.5950531 -217.81454468 279.44894409 C-217.79764811 292.58736463 -217.2090794 305.34216642 -214.5625 318.25 C-214.38557617 319.12317871 -214.20865234 319.99635742 -214.02636719 320.89599609 C-205.57451388 361.39628455 -186.23226152 398.46695824 -164.41748047 433.28320312 C-162.84492083 435.7983051 -161.29221469 438.32326037 -159.75390625 440.859375 C-151.10511252 455.05687536 -141.47422182 468.67244911 -131.33203125 481.83984375 C-129.59358447 484.20766199 -128.07381851 486.73113581 -126.5625 489.25 C-373.7325 489.25 -620.9025 489.25 -875.5625 489.25 C-875.5625 507.73 -875.5625 526.21 -875.5625 545.25 C-871.64280334 545.22033646 -867.72310669 545.19067291 -863.68463135 545.16011047 C-827.71916841 544.89676022 -791.75425324 544.72796129 -755.78786881 544.66194101 C-751.07163103 544.65319813 -746.35539526 544.64362742 -741.63916016 544.63354492 C-740.70026423 544.63155164 -739.7613683 544.62955836 -738.79402098 544.62750467 C-723.6020013 544.59327884 -708.41113291 544.49203207 -693.21963003 544.36590228 C-677.62526251 544.23792377 -662.03183751 544.18223284 -646.43694282 544.19328564 C-636.81728724 544.19783572 -627.20130905 544.14638261 -617.58243373 544.02268257 C-610.98133427 543.94319973 -604.38244303 543.9341021 -597.78103229 543.97964362 C-593.97360747 544.0038526 -590.17280356 543.99771894 -586.36622047 543.90772057 C-564.15767523 543.41141987 -564.15767523 543.41141987 -558.17996883 548.13113379 C-554.23852658 552.60789609 -551.69459325 557.5457437 -549.47290182 563.04860342 C-548.31676264 565.84420507 -546.80930665 568.34235181 -545.1875 570.890625 C-544.30644344 572.42361833 -543.43129647 573.96002535 -542.5625 575.5 C-542.07523438 576.36165771 -541.58796875 577.22331543 -541.0859375 578.11108398 C-539.5661971 580.81763448 -538.06095472 583.53161194 -536.5625 586.25 C-536.0675 587.1467041 -535.5725 588.0434082 -535.0625 588.96728516 C-517.73728573 620.61174389 -503.16709816 655.59799438 -496.5625 691.25 C-496.37075195 692.26707031 -496.17900391 693.28414062 -495.98144531 694.33203125 C-488.7689856 734.00644257 -489.70210597 777.70826092 -513.38427734 811.98461914 C-533.45499542 840.13551203 -566.63822389 859.67092065 -600.6328125 865.84765625 C-601.59960938 865.98042969 -602.56640625 866.11320313 -603.5625 866.25 C-604.72007812 866.43046875 -605.87765625 866.6109375 -607.0703125 866.796875 C-613.12772426 867.53269475 -619.21966735 867.43426601 -625.3125 867.4375 C-626.51132812 867.44974609 -627.71015625 867.46199219 -628.9453125 867.47460938 C-641.9875436 867.49582776 -652.80475353 865.35143538 -664.66455078 860.08984375 C-665.91553888 859.53628071 -667.17172106 858.99428936 -668.43310547 858.46484375 C-678.01599237 854.42567087 -684.28974624 849.47075604 -690.5625 841.25 C-691.05041016 840.62222656 -691.53832031 839.99445312 -692.04101562 839.34765625 C-703.94046468 823.90652808 -713.33030108 807.01064701 -722.875 790.0625 C-725.09945145 786.12231592 -727.33017716 782.1857287 -729.5625 778.25 C-729.88385925 777.68079834 -730.20521851 777.11159668 -730.53631592 776.52514648 C-732.59924448 772.87173478 -734.68002611 769.22945728 -736.78305054 765.59896851 C-737.78105295 763.86707204 -738.76251626 762.1256776 -739.7434082 760.3840332 C-745.4799366 750.54165345 -752.39006394 742.66973695 -763.5625 739.25 C-770.32732944 737.53194808 -776.2437279 738.2890295 -782.5625 741.25 C-789.06439016 745.49133627 -792.94165304 750.80003806 -795.14453125 758.20703125 C-797.78408042 771.10875289 -792.76168173 782.29526889 -786.5625 793.25 C-785.60673672 794.96873103 -784.65100683 796.68748063 -783.6953125 798.40625 C-776.56269844 811.1078079 -769.21134016 823.66811608 -761.7578125 836.18359375 C-758.85481574 841.0584317 -755.97694738 845.94733204 -753.1171875 850.84765625 C-752.74964355 851.47742874 -752.38209961 852.10720123 -752.00341797 852.75605774 C-751.26509237 854.02127879 -750.52677041 855.28650196 -749.78845215 856.55172729 C-744.78146208 865.12798123 -739.76590741 873.69011599 -734.44335938 882.07568359 C-730.64652474 888.06726613 -726.98039417 894.13665635 -723.31021118 900.20620728 C-716.6808328 911.16723364 -709.97342725 922.07093473 -703.08105469 932.86914062 C-701.4171454 935.47789359 -699.75904378 938.09028358 -698.1015625 940.703125 C-696.901183 942.59383974 -695.70066455 944.48446626 -694.5 946.375 C-693.97059814 947.2088623 -693.44119629 948.04272461 -692.89575195 948.90185547 C-683.38774882 963.84443756 -673.69245391 978.6640571 -663.94677734 993.45239258 C-662.06311274 996.31156993 -660.18191636 999.17236111 -658.30078125 1002.03320312 C-651.55549163 1012.27915672 -644.74174335 1022.46891812 -637.74572754 1032.54550171 C-636.63499113 1034.14557292 -635.52781919 1035.74811685 -634.42089844 1037.35083008 C-626.12783645 1049.35691278 -617.72822197 1061.27693448 -609.14355469 1073.07617188 C-606.42275082 1076.81706712 -603.71037326 1080.56404291 -601 1084.3125 C-600.46093018 1085.05798096 -599.92186035 1085.80346191 -599.36645508 1086.5715332 C-595.22856585 1092.30422741 -591.14752747 1098.07546475 -587.07958984 1103.85791016 C-581.85142951 1111.27946453 -576.529977 1118.63265054 -571.20361328 1125.98388672 C-568.48601827 1129.736448 -565.77455527 1133.49343419 -563.0625 1137.25 C-561.97919638 1138.75002146 -560.89586304 1140.25002146 -559.8125 1141.75 C-553.3125 1150.75 -553.3125 1150.75 -551.68823242 1152.99926758 C-550.60281406 1154.50196646 -549.51703821 1156.0044072 -548.4309082 1157.5065918 C-545.75151129 1161.21328481 -543.07810455 1164.92398628 -540.41796875 1168.64453125 C-533.86721948 1177.78944612 -527.14480237 1186.78193155 -520.2980957 1195.70751953 C-516.58610094 1200.55728531 -512.94564679 1205.43848285 -509.4375 1210.4375 C-505.11480244 1216.59082567 -500.5197302 1222.5118873 -495.88110352 1228.42944336 C-491.98237595 1233.4074767 -488.15125038 1238.42852294 -484.375 1243.5 C-480.1923281 1249.11209657 -475.93069136 1254.65154672 -471.58984375 1260.14208984 C-466.85441346 1266.13233993 -462.20498053 1272.18758508 -457.5625 1278.25 C-451.64843874 1274.36169253 -445.84650804 1270.35330122 -440.125 1266.1875 C-438.55732216 1265.0507392 -436.98961286 1263.91402178 -435.421875 1262.77734375 C-434.22594727 1261.90891846 -434.22594727 1261.90891846 -433.00585938 1261.02294922 C-428.96689038 1258.09219454 -424.92076755 1255.17135833 -420.875 1252.25 C-420.14547119 1251.72269287 -419.41594238 1251.19538574 -418.66430664 1250.65209961 C-414.30708053 1247.50384394 -409.93950857 1244.37069811 -405.5625 1241.25 C-406.34072211 1237.58408924 -407.42905033 1236.07739313 -410.1875 1233.5 C-413.5531784 1230.259862 -416.66854751 1226.9217899 -419.71484375 1223.3828125 C-421.7996655 1220.97623179 -423.92771533 1218.61235055 -426.0625 1216.25 C-432.40175098 1209.21822581 -438.58998945 1202.06486156 -444.74194336 1194.86938477 C-447.39300031 1191.77111242 -450.0527138 1188.68121625 -452.734375 1185.609375 C-460.25979588 1176.98750467 -467.60000423 1168.23122038 -474.83496094 1159.36425781 C-476.52288718 1157.29848036 -478.21774499 1155.23857669 -479.9140625 1153.1796875 C-485.77919828 1146.03963579 -491.47129218 1138.80430288 -496.97753906 1131.38378906 C-500.72306467 1126.34164127 -504.56283491 1121.38089021 -508.4375 1116.4375 C-515.08132862 1107.93992047 -521.51272587 1099.29824998 -527.86425781 1090.58056641 C-529.5073396 1088.32569884 -531.15588721 1086.07490633 -532.8046875 1083.82421875 C-540.72203742 1072.97697816 -548.30417676 1061.91521116 -555.8359375 1050.79785156 C-558.27864626 1047.19319819 -560.72723862 1043.59269789 -563.1875 1040 C-563.83851685 1039.04903442 -563.83851685 1039.04903442 -564.50268555 1038.07885742 C-567.38102989 1033.89986089 -570.34569476 1029.79152989 -573.34472656 1025.69848633 C-580.02049226 1016.579863 -586.15020797 1007.21270487 -592.09863281 997.60668945 C-597.20328907 989.38866962 -602.50067205 981.35321018 -608.0625 973.4375 C-609.46145561 971.43135078 -610.85987879 969.42483019 -612.2578125 967.41796875 C-614.41114893 964.33008235 -616.56676871 961.24391819 -618.72949219 958.16259766 C-620.80785855 955.19791106 -622.87373282 952.22486088 -624.9375 949.25 C-625.57365234 948.34918701 -626.20980469 947.44837402 -626.86523438 946.52026367 C-630.11228721 941.81728285 -632.41680443 937.87154625 -633.5625 932.25 C-632.51872192 932.1873999 -632.51872192 932.1873999 -631.45385742 932.12353516 C-623.12925328 931.53707401 -615.05967408 930.229192 -606.875 928.625 C-606.20297546 928.49339478 -605.53095093 928.36178955 -604.83856201 928.22619629 C-570.53984156 921.45720399 -536.00704973 910.19661402 -507.5625 889.25 C-507.0370459 888.86972656 -506.5115918 888.48945312 -505.97021484 888.09765625 C-488.96843632 875.70392891 -472.68039612 859.90592141 -462.5625 841.25 C-462.5625 840.59 -462.5625 839.93 -462.5625 839.25 C-461.8343811 839.70101074 -461.8343811 839.70101074 -461.09155273 840.16113281 C-373.40654592 894.22486998 -270.55201674 914.08645638 -153.74633789 891.31835938 C-142.96029547 888.7137883 -132.40979222 885.40071493 -121.875 881.9375 C-121.21537262 881.72301208 -120.55574524 881.50852417 -119.87612915 881.28753662 C-107.72906585 877.3135407 -96.38283358 872.31585725 -84.5625 867.25 C-84.5625 1008.49 -84.5625 1149.73 -84.5625 1295.25 C-65.7525 1295.25 -46.9425 1295.25 -27.5625 1295.25 C-27.5625 1047.75 -27.5625 800.25 -27.5625 545.25 C79.6875 545.25 186.9375 545.25 297.4375 545.25 C297.4375 608.94 297.4375 672.63 297.4375 738.25 C316.2475 738.25 335.0575 738.25 354.4375 738.25 C354.4375 674.56 354.4375 610.87 354.4375 545.25 C392.3875 545.25 430.3375 545.25 469.4375 545.25 C469.4375 526.77 469.4375 508.29 469.4375 489.25 C434.4575 489.25 399.4775 489.25 363.4375 489.25 C362.4475 481.66 361.4575 474.07 360.4375 466.25 C359.45457416 460.35753781 358.44214649 454.48855857 357.3125 448.625 C357.09240265 447.47109772 357.09240265 447.47109772 356.86785889 446.29388428 C343.41090512 376.11031015 320.89667078 306.49605594 285.4375 244.25 C285.02999512 243.52377441 284.62249023 242.79754883 284.20263672 242.04931641 C274.26593322 224.35975492 262.96963828 207.2083559 250.4375 191.25 C249.57073634 190.11785934 248.70490522 188.98500432 247.83984375 187.8515625 C237.01208037 173.75453297 224.96573139 160.80347278 211.4375 149.25 C210.43157683 148.36930539 209.42643081 147.48772269 208.421875 146.60546875 C195.54528687 135.35209061 182.27268213 124.81563036 167.4375 116.25 C165.35924574 115.03537738 163.28113526 113.82050875 161.203125 112.60546875 C158.88606607 111.25667672 156.56847432 109.90885229 154.25 108.5625 C153.14470947 107.92006348 152.03941895 107.27762695 150.90063477 106.61572266 C123.90228183 91.04870353 94.73391509 79.74492488 64.375 72.8125 C63.39697418 72.58761902 62.41894836 72.36273804 61.4112854 72.13104248 C49.47595484 69.42402918 37.62371154 67.37224217 25.4375 66.25 C24.26614502 66.13954346 23.09479004 66.02908691 21.88793945 65.9152832 C-6.68592899 63.41555594 -36.46574101 61.5398689 -64.5625 68.25 Z " fill="#05186A" transform="translate(923.5625,15.75)"/>
<path d="M0 0 C2.14136924 1.95321545 4.30617037 3.85060626 6.50390625 5.73828125 C11.508271 10.10435522 16.1795788 14.7873078 20.86328125 19.4921875 C22.15202148 20.77512695 22.15202148 20.77512695 23.46679688 22.08398438 C28.45387594 27.07868312 33.22333489 32.18353241 37.80078125 37.5546875 C38.64640625 38.51890625 39.49203125 39.483125 40.36328125 40.4765625 C107.28824652 118.12668246 142.14026736 217.22145362 142.14897811 331.67280245 C142.13583366 337.25923848 142.14041999 342.84566646 142.14268494 348.43211365 C142.14424623 358.07514345 142.13495805 367.71811164 142.11797142 377.36112595 C142.09342882 391.30272345 142.08576068 405.24429163 142.08200745 419.18590839 C142.07546669 441.81373593 142.05559664 464.44152805 142.02709961 487.06933594 C141.99947508 509.02994625 141.97831014 530.99054768 141.96557617 552.95117188 C141.96476425 554.33597891 141.96395213 555.72078594 141.96313983 557.10559297 C141.95688171 567.82985893 141.95103 578.55412511 141.94527614 589.27839136 C141.91705426 641.70385346 141.85668075 694.12923348 141.80078125 746.5546875 C75.47078125 746.5546875 9.14078125 746.5546875 -59.19921875 746.5546875 C-59.225 714.45574219 -59.25078125 682.35679687 -59.27734375 649.28515625 C-59.30251102 628.94595786 -59.32865621 608.60676777 -59.359375 588.26757812 C-59.37444165 578.25992267 -59.38934659 568.252267 -59.40379246 558.24461063 C-59.40575209 556.88737561 -59.40771754 555.5301406 -59.40968888 554.1729056 C-59.44099341 532.58706813 -59.45953505 511.00124326 -59.47131122 489.41538703 C-59.48384275 466.57385278 -59.51117755 443.73237253 -59.55383182 420.89087373 C-59.57887777 407.22675264 -59.59234255 393.56272352 -59.59064832 379.89857916 C-59.5906184 370.5086724 -59.6053797 361.11885883 -59.63138303 351.72898843 C-59.64592582 346.32419905 -59.65432163 340.9196007 -59.64502144 335.5147953 C-59.55767797 278.06831677 -70.51074367 223.54725429 -107.19921875 177.5546875 C-107.9159375 176.64589844 -108.63265625 175.73710938 -109.37109375 174.80078125 C-117.24110113 164.99117986 -125.49523709 155.58742787 -135.19921875 147.5546875 C-135.9984375 146.84441406 -136.79765625 146.13414062 -137.62109375 145.40234375 C-179.01309803 109.33049822 -235.05764809 90.79698472 -289.7421875 93.81640625 C-343.87965686 97.60850636 -393.00569784 118.98583375 -432.19921875 156.5546875 C-432.72902344 157.05726074 -433.25882813 157.55983398 -433.8046875 158.07763672 C-477.64899518 199.85209733 -499.08796367 258.30228474 -500.74975586 318.00634766 C-500.93503608 326.18840151 -501.06099267 334.37170348 -501.19921875 342.5546875 C-476.44921875 342.5546875 -451.69921875 342.5546875 -426.19921875 342.5546875 C-426.19921875 408.2246875 -426.19921875 473.8946875 -426.19921875 541.5546875 C-450.94921875 541.5546875 -475.69921875 541.5546875 -501.19921875 541.5546875 C-501.19921875 609.2046875 -501.19921875 676.8546875 -501.19921875 746.5546875 C-567.52921875 746.5546875 -633.85921875 746.5546875 -702.19921875 746.5546875 C-702.3202128 634.99817598 -702.3202128 634.99817598 -702.34570312 588.25390625 C-702.35120213 578.23714235 -702.3568244 568.22037854 -702.36279673 558.20361491 C-702.36360628 556.84521952 -702.36441139 555.48682413 -702.36521202 554.12842874 C-702.37797092 532.54300183 -702.40045071 510.95759877 -702.42811041 489.37218622 C-702.45733836 466.52096825 -702.47523421 443.6697625 -702.48148423 420.81852615 C-702.48557894 407.15595388 -702.49846136 393.49345014 -702.52296815 379.83089899 C-702.53895575 370.43303465 -702.54359002 361.03520519 -702.53972288 351.63732828 C-702.53782136 346.23370836 -702.54051419 340.83020725 -702.55683517 335.42660904 C-702.77179672 260.39554841 -689.32165491 189.92708094 -655.19921875 122.5546875 C-654.77398926 121.70455078 -654.34875977 120.85441406 -653.91064453 119.97851562 C-638.69167958 89.63144521 -618.56797405 61.98975607 -596.19921875 36.5546875 C-595.39742187 35.63945313 -594.595625 34.72421875 -593.76953125 33.78125 C-587.4214676 26.70305763 -580.72221369 19.97404549 -574.01171875 13.2421875 C-573.53808899 12.76587891 -573.06445923 12.28957031 -572.57647705 11.79882812 C-566.9617848 6.16007395 -561.2805352 0.68783748 -555.19921875 -4.4453125 C-554.56508057 -4.98615479 -553.93094238 -5.52699707 -553.27758789 -6.08422852 C-531.0473017 -24.93910421 -507.01540773 -41.015072 -481.53857422 -55.14648438 C-479.493234 -56.28207297 -477.45684156 -57.43192556 -475.421875 -58.5859375 C-384.6587395 -108.81705411 -271.04889404 -119.11934073 0 0 Z " fill="#05186A" transform="translate(2430.19921875,1722.4453125)"/>
<path d="M0 0 C91.97340091 -0.0806627 91.97340091 -0.0806627 130.51171875 -0.09765625 C139.33121752 -0.10157137 148.15071623 -0.10561216 156.97021484 -0.10986328 C158.07543476 -0.11039078 159.18065467 -0.11091828 160.3193661 -0.11146176 C178.10942702 -0.12013541 195.89947488 -0.13588914 213.68952808 -0.15430559 C231.97778316 -0.17307841 250.26603146 -0.18413225 268.55429578 -0.18817699 C279.81846245 -0.19090681 291.08259219 -0.19949524 302.34674749 -0.21583293 C310.09482032 -0.22649118 317.84287436 -0.22958088 325.59095398 -0.22700275 C330.04598419 -0.22573505 334.50095035 -0.22753058 338.95596886 -0.23841095 C363.69099444 -0.29581572 388.42520182 0.00068448 412.9375 3.75 C414.64558838 4.00595947 414.64558838 4.00595947 416.38818359 4.26708984 C474.95680214 13.34606711 531.01114947 33.96881217 581 66 C582.55654297 66.99386719 582.55654297 66.99386719 584.14453125 68.0078125 C597.27443997 76.59344365 610.03728919 85.85035978 622 96 C623.0318991 96.85885807 624.06448427 97.71689233 625.09765625 98.57421875 C642.75438539 113.28196622 660.98617673 129.126392 674.953125 147.41796875 C676.82255363 149.77616021 678.77336643 151.98972856 680.7890625 154.22265625 C684.81586862 158.72683374 688.51633759 163.40694982 692.125 168.25 C693.0833374 169.533302 693.0833374 169.533302 694.06103516 170.8425293 C704.52703721 184.99234791 714.29229458 199.70081886 723 215 C723.66781494 216.16740723 723.66781494 216.16740723 724.34912109 217.35839844 C749.95736749 262.4088204 766.96944781 311.71829046 774.8125 362.9375 C775.00739014 364.20215088 775.20228027 365.46680176 775.40307617 366.76977539 C778.36042011 387.16358792 779.38015327 407.46754682 779.3125 428.0625 C779.30976578 429.80105759 779.30976578 429.80105759 779.30697632 431.57473755 C779.25945157 449.57516191 778.62437518 467.16923046 776 485 C775.75056641 486.79026611 775.75056641 486.79026611 775.49609375 488.61669922 C769.92716454 527.93437071 758.90463235 566.46597111 742.15722656 602.5078125 C741.0305065 604.93430161 739.93128728 607.37172059 738.8359375 609.8125 C718.14432719 655.35293913 687.11336212 695.79576911 652.02429199 731.15093994 C651.02511139 732.15816232 650.02741559 733.16686031 649.03137207 734.17718506 C643.10758551 740.17681491 637.02242817 745.81205424 630.41088867 751.05664062 C628.12665084 752.8979098 625.96316332 754.8181142 623.8125 756.8125 C603.37421751 775.03931039 578.99154098 789.97468049 555 803 C554.17967285 803.45391113 553.3593457 803.90782227 552.51416016 804.37548828 C505.14187041 830.55125144 452.27518145 845.78720825 398.625 851.75 C397.59439453 851.86569336 396.56378906 851.98138672 395.50195312 852.10058594 C373.31978478 854.36280955 350.99434672 854.14378457 328.72592843 854.11606562 C324.30025186 854.11168692 319.87457644 854.11321273 315.44889832 854.1139679 C307.80835681 854.11448849 300.16782395 854.11139061 292.52728462 854.10573006 C281.48078156 854.09755156 270.43428261 854.09499338 259.38777684 854.09374207 C241.45911775 854.09156145 223.53046325 854.08492839 205.60180664 854.07543945 C188.20109072 854.0662396 170.80037606 854.05918288 153.3996582 854.05493164 C151.77039997 854.05452964 151.77039997 854.05452964 150.10822743 854.05411953 C141.61177876 854.05203972 133.11533006 854.05008293 124.61888134 854.04816496 C83.07925002 854.03875652 41.53963019 854.01863228 0 854 C0 760.94 0 667.88 0 572 C65.01 572 130.02 572 197 572 C197 597.74 197 623.48 197 650 C228.12408997 649.90921494 228.12408997 649.90921494 259.24804688 649.79101562 C271.95400675 649.7366847 284.6599276 649.68526552 297.3659668 649.65356445 C306.62279854 649.63045503 315.87952643 649.59691495 325.13627559 649.55129844 C330.02913042 649.5275392 334.92188351 649.50869796 339.81479454 649.50238609 C368.05086396 649.60914542 368.05086396 649.60914542 396 646 C397.23183517 645.76324554 398.46367035 645.52649109 399.73283386 645.28256226 C402.6773475 644.69646283 405.58510469 644.0306699 408.5 643.3125 C409.53769531 643.05903809 410.57539062 642.80557617 411.64453125 642.54443359 C422.11041514 639.88163926 432.07880914 636.24032876 442 632 C442.74685059 631.68305176 443.49370117 631.36610352 444.26318359 631.03955078 C460.35470582 624.10621454 475.35028219 614.9799383 489 604 C489.99773437 603.2059375 490.99546875 602.411875 492.0234375 601.59375 C512.76967846 584.75500325 529.22360578 564.80808217 543 542 C543.35900391 541.40606445 543.71800781 540.81212891 544.08789062 540.20019531 C561.56389442 510.71152734 572.01566851 473.98649285 572.203125 439.671875 C572.21018463 438.8090239 572.21724426 437.94617279 572.22451782 437.05717468 C572.52770253 411.36885722 572.52770253 411.36885722 569 386 C568.69400879 384.54400391 568.69400879 384.54400391 568.38183594 383.05859375 C557.52679426 332.05411846 531.30203852 284.58945897 490 252 C489.02417969 251.20722656 488.04835938 250.41445312 487.04296875 249.59765625 C447.12351367 217.81273164 398.05392367 203.87472988 347.53555298 203.84178162 C346.02616637 203.83720321 344.516781 203.83220137 343.00739706 203.82681805 C338.90025936 203.81337295 334.79312983 203.80585867 330.68597603 203.79939139 C326.2417265 203.79132676 321.79749365 203.77765024 317.35325623 203.76467896 C309.66672925 203.74300149 301.98020052 203.72482546 294.29365921 203.70907402 C283.18041211 203.68629537 272.06718354 203.65816395 260.95395224 203.62875474 C242.92048158 203.58117641 224.88700331 203.53788601 206.85351562 203.49731445 C189.34276742 203.45790971 171.83202599 203.41646064 154.32128906 203.37231445 C153.22968743 203.36956495 152.13808579 203.36681544 151.01340532 203.36398262 C142.47549574 203.3424616 133.93758646 203.32082258 125.39967728 203.29914629 C83.59979857 203.19305375 41.79990203 203.09724757 0 203 C0 136.01 0 69.02 0 0 Z " fill="#05186A" transform="translate(895,1616)"/>
<path d="M0 0 C4.54488036 0.00878846 9.08975659 0.00570369 13.63464308 0.00419545 C21.47427458 0.00315614 29.31387231 0.00933161 37.15349531 0.02067113 C48.48771064 0.03705451 59.82190995 0.04214713 71.15613583 0.04464711 C89.55344042 0.04900429 107.9507271 0.06225919 126.34802198 0.08125234 C144.1995836 0.09966269 162.05114029 0.11377085 179.90270948 0.12226796 C181.57522028 0.12307195 181.57522028 0.12307195 183.28151917 0.12389219 C192.00401314 0.12805201 200.7265072 0.13196552 209.44900131 0.13580132 C252.06607414 0.1546054 294.68310201 0.19485684 337.30017042 0.23213124 C337.30017042 67.22213124 337.30017042 134.21213124 337.30017042 203.23213124 C298.26864698 203.30560781 298.26864698 203.30560781 258.44860792 203.38056874 C241.96032348 203.41595558 225.47204219 203.45182387 208.98376417 203.48994374 C200.31953925 203.50994957 191.65531406 203.52983366 182.99108839 203.54951406 C181.90527853 203.55198549 180.81946867 203.55445693 179.70075548 203.55700326 C162.20729977 203.59664329 144.71383767 203.62942045 127.22036342 203.65963106 C109.24626084 203.69082565 91.27218522 203.72946881 73.29811299 203.7749213 C62.22127466 203.8027006 51.14445587 203.82477899 40.06759222 203.83939375 C32.4555048 203.8499956 24.84345539 203.86788015 17.23139672 203.89129828 C12.85003418 203.90456828 8.46872453 203.9148133 4.08734083 203.91634488 C-28.57453068 203.89059344 -28.57453068 203.89059344 -60.88732958 208.29463124 C-61.9108452 208.50595693 -62.93436083 208.71728261 -63.98889208 208.9350121 C-104.6175507 217.80252464 -140.79072003 237.57833104 -170.69982958 266.23213124 C-171.28377489 266.78352773 -171.8677202 267.33492421 -172.46936083 267.90302968 C-187.90149854 282.5310718 -199.85284594 298.99261735 -210.69982958 317.23213124 C-211.07446337 317.85732656 -211.44909716 318.48252187 -211.83508348 319.12666249 C-226.58783243 344.10456874 -235.45257625 373.49203663 -238.69982958 402.23213124 C-238.79264208 403.04416005 -238.88545458 403.85618886 -238.98107958 404.6928246 C-244.81606404 461.38074063 -229.21387581 521.1148302 -193.13732958 565.66963124 C-187.55789834 572.40362791 -181.72925538 578.89886036 -175.69982958 585.23213124 C-175.01533739 585.95787343 -174.3308452 586.68361562 -173.62561083 587.43134999 C-168.37455523 592.85282525 -162.64641683 597.59364283 -156.69982958 602.23213124 C-156.15471727 602.65897206 -155.60960497 603.08581288 -155.04797411 603.52558827 C-117.31173013 632.83789367 -70.31263083 649.5816708 -22.50134325 649.51060414 C-20.93660653 649.51562178 -19.37187239 649.5215018 -17.80714178 649.52815688 C-13.55628599 649.5437935 -9.30549657 649.54737842 -5.0546155 649.54880548 C-0.45224464 649.55252843 4.150091 649.56769799 8.75244093 649.58142018 C16.71012957 649.6036066 24.66780553 649.61867149 32.62551832 649.62878728 C44.13078357 649.64342317 55.63600463 649.66897352 67.14124382 649.69711857 C85.81139511 649.7424977 104.48155279 649.77914906 123.15173292 649.81025624 C141.27934851 649.84047825 159.40694841 649.87486768 177.53454542 649.91474843 C178.6648386 649.91722994 179.79513178 649.91971145 180.95967627 649.92226815 C189.80037683 649.94170988 198.64107685 649.96139195 207.48177671 649.98114991 C250.75455551 650.07779823 294.02734789 650.15349853 337.30017042 650.23213124 C337.30017042 717.55213124 337.30017042 784.87213124 337.30017042 854.23213124 C247.61669388 854.31279394 247.61669388 854.31279394 209.97399855 854.32978749 C201.36014756 854.33370235 192.74629664 854.33774306 184.13244581 854.34199452 C183.05306362 854.34252202 181.97368143 854.34304952 180.86159068 854.343593 C163.50943838 854.35225601 146.15729954 854.36800368 128.80515518 854.38643683 C110.95418112 854.40523961 93.10321402 854.41626972 75.25223047 854.42030823 C64.26600429 854.42303194 53.27981617 854.43158613 42.29360173 854.44796418 C34.72675854 854.45865969 27.15993459 854.46170398 19.59308442 854.459134 C15.24857584 854.45787189 10.90413301 854.45959401 6.55963659 854.47054219 C-10.51771362 854.51132809 -27.53264037 854.30098983 -44.58549547 853.32340932 C-45.29606823 853.28318399 -46.00664099 853.24295866 -46.73874626 853.20151438 C-82.21959573 851.14144139 -116.91872388 844.17018946 -150.69982958 833.23213124 C-152.02530809 832.80746572 -152.02530809 832.80746572 -153.37756395 832.37422109 C-203.68964729 816.08018791 -250.31749855 789.24429174 -290.69982958 755.23213124 C-291.24349169 754.77870351 -291.7871538 754.32527577 -292.34729052 753.85810781 C-300.547926 747.0112861 -308.25504527 739.89481168 -315.69982958 732.23213124 C-318.42444764 729.48967608 -321.16984598 726.77032505 -323.93420458 724.06806874 C-330.15482719 717.96187672 -336.09956005 711.83535028 -341.50842333 704.98213124 C-343.47255297 702.51734111 -345.50584116 700.13173341 -347.575562 697.75556874 C-385.48636979 654.00559408 -412.34772569 598.81640948 -427.69982958 543.23213124 C-427.97375536 542.24519277 -428.24768114 541.25825429 -428.5299077 540.24140859 C-438.4141803 504.06854352 -442.92592408 466.86861462 -442.94982958 429.41963124 C-442.95084169 427.98040303 -442.95084169 427.98040303 -442.95187426 426.5120995 C-442.89928347 378.99460513 -435.19994268 332.20986613 -419.69982958 287.23213124 C-419.24253466 285.87378163 -419.24253466 285.87378163 -418.77600145 284.48799062 C-403.1757122 238.2936136 -378.63275576 194.88218163 -347.69982958 157.23213124 C-347.25043016 156.68508534 -346.80103075 156.13803945 -346.33801317 155.5744164 C-336.53292148 143.70326424 -326.10521839 132.45046734 -315.22033739 121.56733632 C-313.69496245 120.03975708 -312.17782286 118.50429542 -310.66076708 116.96845937 C-304.33166082 110.60372795 -297.72638824 104.83153173 -290.69982958 99.23213124 C-289.59802399 98.29732511 -288.50168017 97.35598008 -287.41467333 96.40400624 C-267.25025914 78.82041019 -244.38263751 64.47903445 -221.03918505 51.53095937 C-218.99384483 50.39537077 -216.95745239 49.24551818 -214.92248583 48.09150624 C-172.69841353 24.72340324 -124.71860382 10.81323454 -77.13732958 3.98213124 C-75.5824785 3.75529653 -75.5824785 3.75529653 -73.9962163 3.52387929 C-49.39889946 0.23916747 -24.76274823 -0.06030927 0 0 Z " fill="#05186A" transform="translate(3072.6998295783997,1615.767868757248)"/>
<path d="M0 0 C4.61500336 0.01323087 9.22999836 0.00855229 13.84501541 0.00629318 C21.79861996 0.00473712 29.75214942 0.01396892 37.70573509 0.03100669 C49.20458714 0.05562263 60.70340372 0.06322476 72.20227926 0.06697067 C90.86857656 0.0735002 109.53483403 0.0933652 128.20110977 0.1218785 C146.30950624 0.14951048 164.41789176 0.17066455 182.52630508 0.18340194 C183.65807731 0.18420593 184.78984954 0.18500993 185.95591789 0.18583828 C194.81006925 0.19207832 203.66422085 0.19794847 212.51837254 0.20370197 C255.74981307 0.23188839 298.98115362 0.29227005 342.21258438 0.34819686 C342.21258438 67.33819686 342.21258438 134.32819686 342.21258438 203.34819686 C303.12885391 203.42167343 303.12885391 203.42167343 263.25555313 203.49663436 C246.7535968 203.53201765 230.25164364 203.56788355 213.74969375 203.60600936 C205.07936531 203.62601572 196.40903661 203.6458999 187.73870742 203.66557968 C186.65210632 203.66805111 185.56550521 203.67052255 184.44597679 203.67306888 C166.93109918 203.71272793 149.41621517 203.74549673 131.90131899 203.77569668 C113.91028066 203.80687188 95.91926936 203.84550698 77.92826146 203.89098692 C66.83759514 203.9187906 55.74694846 203.94085862 44.65625677 203.95545937 C37.03858437 203.96604682 29.42095012 203.98391665 21.80330654 204.0073639 C17.41623982 204.02065697 13.02922629 204.03088259 8.64213836 204.0324105 C-16.13974261 203.99206848 -16.13974261 203.99206848 -40.78741562 206.34819686 C-41.87209028 206.50239278 -42.95676493 206.6565887 -44.07430851 206.81545722 C-46.61590025 207.19255627 -49.13685261 207.62619485 -51.66241562 208.09819686 C-52.57039902 208.26738632 -53.47838242 208.43657577 -54.41388047 208.61089218 C-91.04972163 215.73681326 -125.5354309 231.88665003 -153.78741562 256.34819686 C-154.60339219 257.05331405 -155.41936875 257.75843124 -156.26007187 258.48491561 C-167.68443994 268.56950042 -177.68931695 279.14762967 -186.78741562 291.34819686 C-187.42525986 292.18689315 -187.42525986 292.18689315 -188.07598984 293.0425328 C-195.33211669 302.60019931 -201.26602391 312.70377262 -206.78741562 323.34819686 C-207.17816269 324.09698104 -207.56890976 324.84576522 -207.97149765 325.61723983 C-235.96513679 379.94815925 -238.54445016 443.61355646 -220.68414414 501.473441 C-203.39821809 554.78311792 -165.29492199 599.29953278 -115.78741562 625.34819686 C-95.44816796 635.63800907 -74.17274954 642.26054806 -51.78741562 646.34819686 C-49.95682539 646.72065394 -49.95682539 646.72065394 -48.08925354 647.10063541 C-31.47607575 650.21714169 -14.67756886 649.7954149 2.15297496 649.78093672 C6.72801798 649.78030634 11.30300447 649.79699325 15.87802017 649.8114537 C23.78217142 649.83412414 31.68627895 649.84610471 39.59046066 649.85058296 C51.01821717 649.85707338 62.44589502 649.8800612 73.87361965 649.90692625 C92.41953949 649.95008393 110.96545599 649.98011342 129.5114125 650.00176132 C147.51468439 650.02280416 165.51792891 650.05014181 183.52117813 650.08574569 C184.64436431 650.0879592 185.76755049 650.09017271 186.92477262 650.0924533 C195.71033999 650.10981616 204.49590662 650.12754117 213.28147304 650.1453805 C256.25849312 650.23255399 299.23550123 650.288173 342.21258438 650.34819686 C342.21258438 717.66819686 342.21258438 784.98819686 342.21258438 854.34819686 C250.86207874 854.42885956 250.86207874 854.42885956 212.5582875 854.44585311 C203.79274381 854.44976813 195.02720018 854.45380888 186.26165664 854.45806015 C185.16322584 854.45858764 184.06479505 854.45911514 182.93307847 854.45965862 C165.26142049 854.46832794 147.5897757 854.48407921 129.9181255 854.50250246 C111.74624722 854.52128746 93.57437577 854.53233165 75.40248817 854.53637385 C64.21356826 854.53910119 53.0246856 854.54767571 41.83577717 854.5640298 C34.1353388 854.57470319 26.43491933 854.57777442 18.73447412 854.57519962 C14.309451 854.5739342 9.88449239 854.57569996 5.45948112 854.58660781 C-97.1151376 854.82627078 -194.63415358 827.5270367 -294.27569687 746.61382186 C-295.66066728 745.3645484 -297.05218217 744.12199489 -298.47027695 742.91045272 C-304.03280793 738.14347904 -309.23976549 733.0490418 -314.40582383 727.86015975 C-315.84766784 726.41295301 -317.29478678 724.9711766 -318.74249375 723.52983749 C-323.96957297 718.30723518 -329.02424049 712.99853635 -333.78741562 707.34819686 C-334.59021958 706.40544906 -334.59021958 706.40544906 -335.4092418 705.44365585 C-355.16737496 682.10925625 -372.06985597 657.13425229 -386.78741562 630.34819686 C-387.28096543 629.45826034 -387.77451523 628.56832382 -388.28302109 627.65141952 C-415.8259558 577.70128117 -432.57809913 520.19302852 -436.78741562 463.34819686 C-436.91660386 461.63128646 -436.91660386 461.63128646 -437.04840195 459.879691 C-437.74962355 449.75849695 -437.98921792 439.67973192 -437.97491562 429.53569686 C-437.97431138 428.73349716 -437.97370713 427.93129745 -437.97308457 427.10478866 C-437.77118144 327.48282977 -402.49252832 232.83123342 -328.34210312 142.14897811 C-326.38888767 140.00760888 -324.49149686 137.84280774 -322.60382187 135.64507186 C-318.23774791 130.64070712 -313.55479532 125.96939931 -308.84991562 121.28569686 C-307.56697617 119.99695663 -307.56697617 119.99695663 -306.25811875 118.68218124 C-301.26342001 113.69510218 -296.15857071 108.92564322 -290.78741562 104.34819686 C-289.82319687 103.50257186 -288.85897812 102.65694686 -287.86554062 101.78569686 C-267.4903242 84.22473685 -245.184327 68.62078103 -221.78741562 55.34819686 C-220.94968613 54.87059921 -220.11195664 54.39300155 -219.2488414 53.90093124 C-195.76761054 40.60607604 -171.38436139 29.86986835 -145.78741562 21.34819686 C-144.73731308 20.997733 -143.68721055 20.64726913 -142.60528672 20.28618515 C-126.22338314 14.88531133 -109.70683952 10.68850131 -92.78741562 7.34819686 C-91.80128281 7.1524205 -90.81515 6.95664413 -89.79913437 6.75493515 C-60.05397807 0.99407521 -30.19680451 -0.1091597 0 0 Z M-53.36509812 73.20079696 C-54.08341759 73.28364951 -54.80173706 73.36650206 -55.54182378 73.45186529 C-78.46707429 76.15174363 -100.8087924 81.30417018 -122.78741562 88.34819686 C-123.63529648 88.61712753 -124.48317734 88.88605819 -125.35675156 89.16313827 C-167.33523209 102.64738496 -206.19997314 124.9011802 -239.78741562 153.34819686 C-240.78901719 154.16546249 -241.79061875 154.98272811 -242.82257187 155.82475936 C-250.46792855 162.12944488 -257.57376428 168.92525895 -264.59991562 175.91069686 C-265.47116074 176.77275741 -266.34240586 177.63481796 -267.24005234 178.52300155 C-272.43309624 183.7407413 -277.21200592 189.15097773 -281.8154918 194.89482772 C-283.37755581 196.83826975 -284.96225983 198.73310786 -286.61554062 200.59819686 C-294.54583183 209.60291462 -301.19266122 219.33973444 -307.78741562 229.34819686 C-308.28886094 230.09810897 -308.79030625 230.84802108 -309.30694687 231.6206578 C-337.3057577 273.60040516 -354.85400421 321.5270316 -363.03741562 371.16069686 C-363.18871933 372.07705917 -363.34002305 372.99342147 -363.49591172 373.93755233 C-366.28727651 392.05776788 -367.1649486 410.09705548 -367.09991562 428.41069686 C-367.09809281 429.48225021 -367.09626999 430.55380355 -367.09439194 431.65782821 C-367.04658969 448.39671394 -366.44459151 464.79075065 -363.78741562 481.34819686 C-363.53000596 482.99441024 -363.53000596 482.99441024 -363.26739609 484.67388046 C-352.51345933 551.68657132 -324.19022161 615.5888022 -278.78741562 666.34819686 C-278.13579453 667.08594345 -277.48417344 667.82369003 -276.81280625 668.58379257 C-271.04770787 675.06697053 -265.04416949 681.27466702 -258.91241562 687.41069686 C-257.99589219 688.3394664 -257.07936875 689.26823593 -256.13507187 690.22514999 C-249.99817114 696.37499777 -243.58436745 701.94409608 -236.78741562 707.34819686 C-235.61356167 708.32473504 -234.44247967 709.30462706 -233.27569687 710.28960311 C-173.83718045 759.70747841 -93.81941944 787.66411845 -16.64512742 787.46845138 C-15.38853642 787.46930581 -14.13194543 787.47016023 -12.83727592 787.47104055 C-9.38915561 787.47325314 -5.94106696 787.46930915 -2.49295068 787.46426249 C1.24032531 787.45991114 4.97359977 787.46140771 8.70687759 787.46216476 C15.1618665 787.46268704 21.61684523 787.45957122 28.07183158 787.45392692 C37.40445659 787.44577174 46.73707673 787.44319259 56.06970491 787.44193893 C71.21425801 787.43975471 86.3588057 787.43311173 101.50335586 787.42363632 C116.20778267 787.41444588 130.91220801 787.40737304 145.61663711 787.4031285 C146.52425536 787.40286578 147.4318736 787.40260306 148.36699543 787.40233237 C152.92061891 787.40102726 157.47424239 787.39976357 162.02786589 787.39852047 C199.75611019 787.38816747 237.48434448 787.36973976 275.21258438 787.34819686 C275.21258438 765.89819686 275.21258438 744.44819686 275.21258438 722.34819686 C266.28590713 722.32837753 257.35922988 722.30855819 248.16204727 722.28813827 C219.51358064 722.22316197 190.86514592 722.14861865 162.2167188 722.06814525 C157.75757719 722.05562822 153.29843535 722.04319516 148.83929336 722.03081405 C147.9516573 722.02834806 147.06402125 722.02588206 146.14948713 722.02334134 C131.82686391 721.98375049 117.50423294 721.95094306 103.18158729 721.92069705 C88.45625189 721.88944759 73.73094904 721.85078198 59.00565034 721.80540681 C49.9387557 721.77769617 40.87188453 721.75558883 31.80495923 721.74093436 C25.56506307 721.73029168 19.32521269 721.71236623 13.08535124 721.68902983 C9.49954471 721.67582455 5.91380155 721.66552529 2.32796943 721.66398323 C-76.10253275 721.61835149 -146.64315272 698.92669572 -205.78741562 646.34819686 C-206.33446152 645.86431503 -206.88150742 645.38043319 -207.44513047 644.88188827 C-212.95793779 639.98801662 -218.30721701 635.06254927 -223.04522812 629.39507186 C-224.29055235 627.93195551 -225.58307755 626.5084946 -226.90460312 625.11382186 C-273.98745356 575.40668141 -299.64873398 505.18450509 -301.78741562 437.34819686 C-301.82866562 436.07073593 -301.86991562 434.79327499 -301.91241562 433.47710311 C-303.40138693 362.05934321 -277.15210142 287.13226349 -228.01007187 234.71929061 C-226.08029838 232.66063946 -224.23762978 230.56137089 -222.41241562 228.41069686 C-214.30697053 219.12558605 -205.43724113 210.99522839 -195.78741562 203.34819686 C-194.07893996 201.91086603 -192.37060964 200.47336241 -190.66241562 199.03569686 C-153.80951403 169.05367523 -108.78958303 149.48726836 -62.16241562 141.09819686 C-61.33016465 140.94697372 -60.49791367 140.79575058 -59.64044297 140.63994491 C-40.3672896 137.40951195 -21.05859976 137.03968626 -1.56442571 137.03152263 C2.16327911 137.02777018 5.89094155 137.01258724 9.61862075 136.99890792 C16.05163315 136.97681156 22.48463012 136.96169332 28.91767204 136.95154083 C38.2183571 136.93685224 47.5189883 136.91128817 56.81964143 136.88320954 C71.91537041 136.83792466 87.01110723 136.80123494 102.10687149 136.77007186 C116.75662503 136.73981084 131.40635949 136.70542635 146.05609024 136.66557968 C146.96160669 136.66311813 147.86712315 136.66065658 148.8000795 136.65812044 C153.3435381 136.64574437 157.88699647 136.63328812 162.43045473 136.62079203 C200.02447527 136.51749882 237.61850929 136.42981132 275.21258438 136.34819686 C275.21258438 114.89819686 275.21258438 93.44819686 275.21258438 71.34819686 C236.31617055 71.25970697 197.4198531 71.18597006 158.52336712 71.14393555 C153.91187881 71.13893383 149.30039072 71.13375643 144.68890274 71.1284703 C143.77099302 71.12742106 142.85308331 71.12637182 141.90735815 71.12529078 C127.12262376 71.10797356 112.33795277 71.07648484 97.55325576 71.03958568 C82.33747374 71.00193263 67.12172448 70.9799101 51.9058978 70.97184289 C42.54721167 70.96640507 33.18870485 70.9493513 23.83007405 70.916531 C17.37752939 70.8950807 10.92507487 70.88906413 4.47249731 70.89419135 C0.77192725 70.89670683 -2.92833392 70.89338021 -6.62884629 70.87137496 C-22.3359981 70.78282242 -37.76661089 71.39618411 -53.36509812 73.20079696 Z " fill="#05186A" transform="translate(487.78741562366486,1615.651803135872)"/>
<path d="M0 0 C0.81520111 0.00343414 1.63040222 0.00686829 2.4703064 0.01040649 C23.57330264 0.11449956 43.38608699 2.28737598 63.9375 7.25 C64.91589844 7.48283691 65.89429688 7.71567383 66.90234375 7.95556641 C82.88898015 11.86995696 97.21562526 18.177194 111.83618164 25.67260742 C113.91277628 26.72880501 116.00083578 27.7627428 118.09936523 28.7746582 C124.36482627 31.80400886 129.96136885 35.10828222 135.5 39.3125 C137.04129573 40.4553847 138.58432517 41.59593429 140.12890625 42.734375 C140.91410645 43.31380859 141.69930664 43.89324219 142.50830078 44.49023438 C147.32461414 47.97927827 152.27107984 51.28250676 157.21704102 54.58422852 C169.29858422 62.73379065 179.43748694 72.34808228 189.73095703 82.61791992 C192.15586762 85.03102166 194.59882837 87.42475851 197.04296875 89.81835938 C207.55089224 100.21640628 216.56701948 111.07527752 224.9375 123.25 C225.80143522 124.48945062 226.66551892 125.72879775 227.52978516 126.96801758 C229.76841861 130.20230395 231.95384046 133.46996069 234.125 136.75 C234.50247375 137.31883911 234.87994751 137.88767822 235.26885986 138.47375488 C241.91414564 148.5033652 248.17438537 158.68643866 253.9375 169.25 C254.41348633 170.10916016 254.88947266 170.96832031 255.37988281 171.85351562 C283.81919368 223.41016105 295.34917666 280.66566498 307.19604492 337.70031738 C307.93551656 341.24050439 308.68584771 344.77822671 309.43945312 348.31542969 C309.7913974 349.97637161 309.7913974 349.97637161 310.15045166 351.67086792 C310.58983126 353.7432493 311.03215568 355.81500938 311.47796631 357.88601685 C311.67118469 358.80132172 311.86440308 359.71662659 312.06347656 360.65966797 C312.31801605 361.85123001 312.31801605 361.85123001 312.57769775 363.06686401 C312.9375 365.25 312.9375 365.25 312.9375 369.25 C268.39250284 369.45602259 223.84755614 369.61459841 179.30217642 369.70958797 C174.042596 369.72084426 168.78301652 369.73249316 163.5234375 369.74438477 C162.47635482 369.74674556 161.42927214 369.74910635 160.35045968 369.75153869 C143.39860376 369.79069519 126.44702266 369.86165326 109.49532975 369.94437516 C92.09988772 370.02855421 74.70458957 370.07853221 57.30895221 370.09679645 C46.57568447 370.10914258 35.84319353 370.14812783 25.11016493 370.2212482 C17.7489961 370.26884114 10.38822855 370.28319675 3.02691706 370.2715124 C-1.21981331 370.26575032 -5.46518689 370.27454822 -9.71167564 370.32284927 C-13.60374033 370.36679479 -17.49354222 370.36877172 -21.38571323 370.33809005 C-22.78969613 370.33430106 -24.1938228 370.34560225 -25.59752463 370.37394864 C-33.14186517 370.51737674 -37.96901577 370.04128969 -43.72049141 364.90110683 C-45.18635022 363.36823898 -46.63523845 361.81886915 -48.0625 360.25 C-49.3794482 359.06486864 -50.70997626 357.89436376 -52.0625 356.75 C-56.7770325 352.6353285 -61.43566019 348.46305739 -66.0625 344.25 C-66.61325195 343.75113281 -67.16400391 343.25226563 -67.73144531 342.73828125 C-77.6882697 333.69557983 -87.03720087 324.22104183 -96.0625 314.25 C-96.90143799 313.32815918 -96.90143799 313.32815918 -97.75732422 312.38769531 C-112.5333115 296.06349683 -124.93549176 278.22632333 -136.0625 259.25 C-136.46194824 258.5698584 -136.86139648 257.8897168 -137.27294922 257.18896484 C-163.17095566 212.47488791 -169.43970541 158.88328561 -156.43359375 109.14453125 C-149.49150419 83.8784965 -137.18420317 63.07075997 -119.0625 44.25 C-118.00675781 43.08210938 -118.00675781 43.08210938 -116.9296875 41.890625 C-95.3301438 18.73065799 -62.54018856 7.20613712 -32.0625 2.25 C-31.04728271 2.07194824 -30.03206543 1.89389648 -28.98608398 1.71044922 C-19.28193057 0.13627421 -9.79967222 -0.06757189 0 0 Z M-69.75 88 C-89.54558743 110.97135012 -96.45151801 142.59027742 -95.2890625 172.29101562 C-93.1411916 200.34295028 -77.74744356 227.3391135 -61.0625 249.25 C-60.36511719 250.1678125 -59.66773438 251.085625 -58.94921875 252.03125 C-57.03117119 254.47745558 -55.05693235 256.86576398 -53.0625 259.25 C-52.31097656 260.18585938 -51.55945313 261.12171875 -50.78515625 262.0859375 C-43.86131088 270.56233879 -36.2143169 278.31386006 -28.5 286.0625 C-27.96956085 286.59811554 -27.4391217 287.13373108 -26.89260864 287.68557739 C-19.94969036 294.68180691 -12.78518468 301.10662172 -5.0625 307.25 C-3.82105793 308.29134272 -2.58454803 309.3386254 -1.35546875 310.39453125 C-0.83146484 310.84376953 -0.30746094 311.29300781 0.23242188 311.75585938 C1.26501538 312.64492637 2.29621434 313.53561503 3.32617188 314.42773438 C10.89265978 320.98227489 10.89265978 320.98227489 20.45223999 322.66369629 C21.74434702 322.65425743 23.03645405 322.64481857 24.36771584 322.63509369 C25.7886095 322.60412541 27.20949438 322.57275218 28.63037109 322.54101562 C30.14077918 322.52214396 31.65121039 322.50505274 33.16165733 322.48960114 C37.24425235 322.44278001 41.32606657 322.37093834 45.40820217 322.29462051 C49.59837463 322.22069974 53.78882566 322.17060233 57.97930908 322.11791992 C67.96471514 321.98721462 77.94932744 321.81817339 87.93405962 321.64421272 C92.9159961 321.55804243 97.89798817 321.47520518 102.87997437 321.39196777 C112.25348822 321.23487535 121.62695077 321.0749192 131.00039709 320.91385221 C141.69743693 320.73018711 152.39453197 320.54983929 163.09163213 320.36972713 C185.0403167 320.0000946 206.98893112 319.62643588 228.9375 319.25 C228.62149777 317.15935883 228.30392656 315.06895477 227.98568726 312.97865295 C227.80900702 311.81453416 227.63232677 310.65041536 227.45029259 309.45102024 C226.5383563 303.75841356 225.06131929 298.24896826 223.5625 292.6875 C223.3934314 292.05804474 223.22436279 291.42858948 223.0501709 290.78005981 C215.69204856 263.55036081 206.30722615 237.0563978 194.9375 211.25 C194.57205078 210.41533203 194.20660156 209.58066406 193.83007812 208.72070312 C182.64478194 183.40661175 168.4531697 158.71117891 150.9375 137.25 C149.83535156 135.86167969 149.83535156 135.86167969 148.7109375 134.4453125 C136.94295429 119.76652073 123.91999034 105.67509 108.9375 94.25 C108.04514648 93.56768311 108.04514648 93.56768311 107.13476562 92.87158203 C57.51551371 55.33103072 -22.06289479 37.70436937 -69.75 88 Z " fill="#05186A" transform="translate(919.0625,135.75)"/>
<path d="M0 0 C0.38939942 32.93483073 0.68880593 65.86906288 0.8681106 98.80567165 C0.88937175 102.69703031 0.91137532 106.58838443 0.93383789 110.47973633 C0.94052681 111.64174797 0.94052681 111.64174797 0.94735085 112.82723459 C1.02125753 125.35910435 1.15525405 137.88964387 1.31159753 150.42072532 C1.47076634 163.28588654 1.56503814 176.15035283 1.59950441 189.01645821 C1.62279481 196.95185588 1.69623638 204.88349397 1.83457994 212.81773349 C1.93536851 218.90972913 1.94569507 224.99851573 1.92283058 231.0914402 C1.92749922 233.58490608 1.96121397 236.07851706 2.02649307 238.57113266 C2.48221593 256.87364425 2.48221593 256.87364425 -1.62710881 262.04934669 C-5.57273331 265.55918769 -9.95443969 267.88859074 -14.7679292 269.99517 C-17.75725655 271.34090052 -20.55875713 272.95657854 -23.39386123 274.5973404 C-33.10917902 280.11752852 -43.54981231 284.11767393 -54 288 C-55.22847656 288.46148438 -56.45695312 288.92296875 -57.72265625 289.3984375 C-136.03777143 317.12216486 -228.2563658 305.27887977 -302.36865234 270.25634766 C-303.23699707 269.84175293 -304.1053418 269.4271582 -305 269 C-305.91346191 268.56864746 -306.82692383 268.13729492 -307.76806641 267.69287109 C-324.95261768 259.52551279 -341.6617638 250.3055656 -357 239 C-356.85997559 237.86481934 -356.71995117 236.72963867 -356.57568359 235.56005859 C-355.16318785 223.55746165 -354.59744943 211.70606586 -354.625 199.625 C-354.62554382 198.71613037 -354.62608765 197.80726074 -354.62664795 196.87084961 C-354.8004818 133.1948134 -378.16636453 64.18609705 -414.328125 11.57421875 C-416 9 -416 9 -416 7 C-392.13171384 6.28122725 -368.26577126 5.74964231 -344.38971579 5.37667644 C-339.85231473 5.30531329 -335.31495433 5.23143904 -330.77758789 5.15791321 C-321.95291834 5.01528693 -313.12821528 4.87485367 -304.30349811 4.73520844 C-294.00469626 4.57214175 -283.70593237 4.40673466 -273.40716932 4.24123878 C-255.04010915 3.94615978 -236.67301845 3.65302808 -218.3059082 3.36108398 C-200.50836143 3.0781903 -182.71083472 2.79407717 -164.91333008 2.50854492 C-163.8125966 2.49088567 -162.71186311 2.47322642 -161.57777407 2.45503204 C-157.15240162 2.38403279 -152.7270292 2.31303225 -148.30165682 2.24202829 C-131.28015691 1.96895865 -114.25864262 1.69678678 -97.23712551 1.42479087 C-92.10600701 1.34279634 -86.97488912 1.26076417 -81.84377265 1.17864299 C-71.07942454 1.00637281 -60.31507167 0.83441229 -49.55070242 0.66346806 C-45.1041205 0.59284982 -40.65754148 0.52206192 -36.21096992 0.45079422 C-32.14173411 0.38558258 -28.07249036 0.320892 -24.00323961 0.25661952 C-22.53178862 0.23328982 -21.06034058 0.20977312 -19.58889588 0.18605017 C-17.58795711 0.15382063 -15.58700618 0.12234802 -13.5860548 0.09091091 C-11.91968559 0.06438416 -11.91968559 0.06438416 -10.21965235 0.03732151 C-6.81282444 -0.0021697 -3.40702607 -0.00626819 0 0 Z M-327 54 C-324.71513376 60.91937278 -324.71513376 60.91937278 -322.24169922 67.75244141 C-321.93031509 68.57383102 -321.61893097 69.39522064 -321.29811096 70.24150085 C-320.97028122 71.1028212 -320.64245148 71.96414154 -320.3046875 72.8515625 C-307.21031515 107.52949621 -294.06285433 142.70890901 -291.21484375 180.00390625 C-291.15627197 180.752771 -291.0977002 181.50163574 -291.03735352 182.27319336 C-290.76274814 185.89492008 -290.53291454 189.51142406 -290.37548828 193.14013672 C-289.91401541 200.53192688 -289.28573363 205.23979922 -283.77539062 210.44384766 C-283.18951172 210.95737793 -282.60363281 211.4709082 -282 212 C-280.96927617 213.13694463 -279.94697678 214.28164908 -278.9375 215.4375 C-248.72102768 245.04694498 -198.61028683 248.14523439 -158.9375 248.4375 C-158.09193542 248.44962524 -157.24637085 248.46175049 -156.37518311 248.47424316 C-124.71842489 248.86061093 -96.49793482 237.92319584 -70 221 C-68.69031252 219.91510384 -68.69031252 219.91510384 -68.87695217 217.28446865 C-68.87833486 215.44963972 -68.87833486 215.44963972 -68.87974548 213.57774353 C-68.87888947 212.90066345 -68.87803345 212.22358337 -68.87715149 211.52598572 C-68.87548665 209.23336211 -68.88103547 206.94081037 -68.88647461 204.64819336 C-68.88678071 202.98602838 -68.88664785 201.32386326 -68.88610935 199.66169834 C-68.88588281 195.1947961 -68.89169497 190.72792043 -68.89871979 186.26102448 C-68.90439835 182.0754233 -68.90468201 177.88982873 -68.90539551 173.70422363 C-68.91065096 161.44864554 -68.924612 149.19307244 -68.9375 136.9375 C-68.9684375 95.8834375 -68.9684375 95.8834375 -69 54 C-154.14 54 -239.28 54 -327 54 Z " fill="#05186A" transform="translate(839,561)"/>
<path d="M0 0 C62.37 0 124.74 0 189 0 C189 63.36 189 126.72 189 192 C126.63 192 64.26 192 0 192 C0 128.64 0 65.28 0 0 Z M58 60 C58 81.45 58 102.9 58 125 C81.43 125 104.86 125 129 125 C129 103.55 129 82.1 129 60 C105.57 60 82.14 60 58 60 Z " fill="#05186A" transform="translate(1152,1182)"/>
<path d="M0 0 C18.81 0 37.62 0 57 0 C57 64.02 57 128.04 57 194 C38.19 194 19.38 194 0 194 C0 129.98 0 65.96 0 0 Z " fill="#05186A" transform="translate(2160,2072)"/>
<path d="M0 0 C18.81 0 37.62 0 57 0 C57 64.02 57 128.04 57 194 C38.19 194 19.38 194 0 194 C0 129.98 0 65.96 0 0 Z " fill="#05186A" transform="translate(2053,2072)"/>
<path d="M0 0 C64.02 0 128.04 0 194 0 C194 18.48 194 36.96 194 56 C129.98 56 65.96 56 0 56 C0 37.52 0 19.04 0 0 Z " fill="#05186A" transform="translate(895,1979)"/>
<path d="M0 0 C64.02 0 128.04 0 194 0 C194 18.48 194 36.96 194 56 C129.98 56 65.96 56 0 56 C0 37.52 0 19.04 0 0 Z " fill="#05186A" transform="translate(895,1872)"/>
<path d="M0 0 C64.02 0 128.04 0 194 0 C194 18.15 194 36.3 194 55 C129.98 55 65.96 55 0 55 C0 36.85 0 18.7 0 0 Z " fill="#05186A" transform="translate(895,2082)"/>
<path d="M0 0 C18.15 0 36.3 0 55 0 C55 64.02 55 128.04 55 194 C36.85 194 18.7 194 0 194 C0 129.98 0 65.96 0 0 Z " fill="#05186A" transform="translate(2264,2072)"/>
<path d="M0 0 C62.04 0 124.08 0 188 0 C188 18.48 188 36.96 188 56 C125.96 56 63.92 56 0 56 C0 37.52 0 19.04 0 0 Z " fill="#05186A" transform="translate(1153,977)"/>
<path d="M0 0 C62.04 0 124.08 0 188 0 C188 18.48 188 36.96 188 56 C125.96 56 63.92 56 0 56 C0 37.52 0 19.04 0 0 Z " fill="#05186A" transform="translate(1153,870)"/>
<path d="M0 0 C62.04 0 124.08 0 188 0 C188 18.15 188 36.3 188 55 C125.96 55 63.92 55 0 55 C0 36.85 0 18.7 0 0 Z " fill="#05186A" transform="translate(1153,1080)"/>
</svg>
